<?xml version="1.0" encoding="UTF-8"?>
<svg version="1.1" xmlns="http://www.w3.org/2000/svg" width="318" height="318">
<path d="M0 0 C0.83644043 0.22993652 1.67288086 0.45987305 2.53466797 0.69677734 C13.65873755 3.85496708 23.87186942 8.46164843 34 14 C35.10472656 14.60070312 36.20945313 15.20140625 37.34765625 15.8203125 C43.68667682 19.39452637 49.41460811 23.34550676 55 28 C55.50176758 28.4129834 56.00353516 28.8259668 56.52050781 29.25146484 C89.85066664 56.70973295 110.63725646 92.93225257 116 136 C117.07986908 156.73075245 116.59992372 176.89571939 111 197 C110.77006348 197.83644043 110.54012695 198.67288086 110.30322266 199.53466797 C107.1435213 210.66406192 102.52455526 220.86013343 97 231 C96.43410156 232.05832031 95.86820312 233.11664063 95.28515625 234.20703125 C76.13797812 268.58184752 41.85898701 295.87645728 4.10546875 306.7578125 C-11.37662502 310.98403922 -26.12851375 313.44024163 -42.1875 313.4375 C-42.97458344 313.43889984 -43.76166687 313.44029968 -44.57260132 313.44174194 C-58.82426684 313.42100976 -72.22458434 311.81847672 -86 308 C-86.73927734 307.79713379 -87.47855469 307.59426758 -88.24023438 307.38525391 C-92.5907757 306.14888212 -96.79330204 304.65603042 -101 303 C-101.62068359 302.76087891 -102.24136719 302.52175781 -102.88085938 302.27539062 C-119.81623793 295.66770531 -134.53964929 286.14108338 -148 274 C-149.37459752 272.85368386 -150.7495455 271.70778772 -152.125 270.5625 C-179.57091749 246.15974909 -199.43471604 208.33672603 -201.89160156 171.45654297 C-203.3115323 139.27784227 -203.3115323 139.27784227 -200 124 C-199.82227051 123.17580566 -199.64454102 122.35161133 -199.46142578 121.50244141 C-190.0421659 79.08205145 -165.33413225 43.00997589 -129 19 C-91.06650021 -4.89749987 -43.24039244 -12.04434538 0 0 Z " fill="#010202" transform="translate(202,5)"/>
<path d="M0 0 C0.83644043 0.22993652 1.67288086 0.45987305 2.53466797 0.69677734 C13.65873755 3.85496708 23.87186942 8.46164843 34 14 C35.10472656 14.60070312 36.20945313 15.20140625 37.34765625 15.8203125 C43.68667682 19.39452637 49.41460811 23.34550676 55 28 C55.50176758 28.4129834 56.00353516 28.8259668 56.52050781 29.25146484 C89.85066664 56.70973295 110.63725646 92.93225257 116 136 C117.07986908 156.73075245 116.59992372 176.89571939 111 197 C110.77006348 197.83644043 110.54012695 198.67288086 110.30322266 199.53466797 C107.1435213 210.66406192 102.52455526 220.86013343 97 231 C96.43410156 232.05832031 95.86820312 233.11664063 95.28515625 234.20703125 C76.13797812 268.58184752 41.85898701 295.87645728 4.10546875 306.7578125 C-11.37662502 310.98403922 -26.12851375 313.44024163 -42.1875 313.4375 C-42.97458344 313.43889984 -43.76166687 313.44029968 -44.57260132 313.44174194 C-58.82426684 313.42100976 -72.22458434 311.81847672 -86 308 C-86.73927734 307.79713379 -87.47855469 307.59426758 -88.24023438 307.38525391 C-98.19315076 304.55675416 -107.60599396 300.28346925 -117 296 C-117 295.34 -117 294.68 -117 294 C-115.453125 292.87890625 -115.453125 292.87890625 -113.25 291.5625 C-100.5845941 283.34494531 -89.91055977 272.01575777 -84 258 C-83.60167969 257.06929688 -83.20335938 256.13859375 -82.79296875 255.1796875 C-81.42537867 251.81649015 -80.20401751 248.42516287 -79 245 C-78.45418274 243.48314102 -78.45418274 243.48314102 -77.89733887 241.93563843 C-73.707571 228.09619754 -74.46010868 213.75022945 -74.52422142 199.43693972 C-74.53612604 195.58726465 -74.52202804 191.73769241 -74.5098877 187.88803101 C-74.48332331 178.13365303 -74.48983611 168.37939851 -74.5 158.625 C-74.51098298 148.06818301 -74.51607885 137.51155789 -74.48270559 126.95477331 C-74.46941145 122.39120873 -74.47517454 117.82820483 -74.49607086 113.26467443 C-74.50510623 110.4212344 -74.49754005 107.57800696 -74.48565865 104.73458481 C-74.48254122 102.80671455 -74.49923092 100.87884336 -74.51670837 98.9510498 C-74.46215897 91.11221532 -73.77048709 83.46162371 -68.51360321 77.24114418 C-67 76 -67 76 -64.625 75.8125 C-60.5448125 77.65829911 -58.66121063 80.91725542 -57 85 C-55.87903991 91.83585375 -55.84557551 98.58377725 -55.83886719 105.49951172 C-55.83390228 106.73307404 -55.82893738 107.96663635 -55.82382202 109.23757935 C-55.81177412 112.60132196 -55.80427184 115.96500292 -55.79981136 119.32875967 C-55.7968669 121.43548563 -55.7927597 123.54220632 -55.78830719 125.6489296 C-55.77465945 132.25584633 -55.76497832 138.86275082 -55.7611053 145.46968067 C-55.75662472 153.06850674 -55.73906548 160.66715293 -55.7101047 168.26592433 C-55.68842821 174.16003972 -55.67839792 180.05410469 -55.67706418 185.94825947 C-55.67602084 189.4596248 -55.67021365 192.97082041 -55.65224457 196.4821434 C-55.63257117 200.40205337 -55.63707658 204.32174125 -55.64355469 208.24169922 C-55.6343399 209.39007263 -55.62512512 210.53844604 -55.6156311 211.72161865 C-55.66133397 220.5779746 -56.43893293 229.43893293 -63 236 C-63.66 236.33 -64.32 236.66 -65 237 C-57.83657914 237.07729995 -50.67326915 237.12911178 -43.50952148 237.16479492 C-41.08239728 237.17970099 -38.65529912 237.20003286 -36.22827148 237.22631836 C-7.01654781 237.53431875 21.4728376 235.28602306 45 216 C45.66 216 46.32 216 47 216 C47 215.34 47 214.68 47 214 C48.43359375 212.625 48.43359375 212.625 50.4375 211 C58.53535451 204.07740933 65.05403658 196.44349282 70 187 C70.57621094 185.91203125 71.15242188 184.8240625 71.74609375 183.703125 C85.44516992 156.72892146 87.04854201 123.90603499 77.828125 95.21484375 C76.63907282 92.03469005 75.24967672 88.96468866 73.76953125 85.91015625 C73 84 73 84 73 81 C72.34 81 71.68 81 71 81 C70.45730469 79.95199219 69.91460937 78.90398437 69.35546875 77.82421875 C68.63310441 76.44515956 67.91043199 75.06626171 67.1875 73.6875 C66.83107422 72.99720703 66.47464844 72.30691406 66.10742188 71.59570312 C65.58051758 70.59506836 65.58051758 70.59506836 65.04296875 69.57421875 C64.72352295 68.96151123 64.40407715 68.34880371 64.07495117 67.7175293 C63.03923301 65.91431687 63.03923301 65.91431687 61.37231445 64.40161133 C60 63 60 63 60 61 C59.34 61 58.68 61 58 61 C56.57235956 59.33540679 55.20779683 57.61645927 53.875 55.875 C50.41125247 51.51303594 47.08011848 48.17348914 42.43359375 45.12109375 C41.96050781 44.75113281 41.48742187 44.38117187 41 44 C41 43.34 41 42.68 41 42 C40.236875 41.731875 39.47375 41.46375 38.6875 41.1875 C36 40 36 40 34.59375 38.5625 C32.79346064 36.79751043 31.08293302 35.89188619 28.8125 34.8125 C27.73935547 34.29623047 27.73935547 34.29623047 26.64453125 33.76953125 C25.83048828 33.38861328 25.83048828 33.38861328 25 33 C25 32.34 25 31.68 25 31 C24.41734375 30.84144531 23.8346875 30.68289062 23.234375 30.51953125 C18.44780663 29.15731604 13.92562337 27.58222873 9.375 25.5625 C2.1038719 22.46363668 -5.29935227 20.67271327 -13 19 C-13.98871094 18.77183594 -14.97742188 18.54367188 -15.99609375 18.30859375 C-39.41432373 13.76475808 -63.70587986 17.10681021 -86.0234375 24.6953125 C-88.99286935 25.70178192 -91.89750459 26.49321788 -95 27 C-95 27.66 -95 28.32 -95 29 C-95.84820312 29.37769531 -96.69640625 29.75539062 -97.5703125 30.14453125 C-107.93734032 35.00905969 -117.2327071 41.08406553 -125.2734375 49.33203125 C-127 51 -127 51 -129 51 C-129.25265625 51.5671875 -129.5053125 52.134375 -129.765625 52.71875 C-131.16113949 55.2978021 -132.83849618 57.27732114 -134.75 59.5 C-139.16391023 64.89656907 -142.13059487 70.67426596 -145 77 C-145.66 77 -146.32 77 -147 77 C-148.73886187 82.12964252 -150.42881453 87.27334069 -152.0625 92.4375 C-152.54396484 93.95150391 -152.54396484 93.95150391 -153.03515625 95.49609375 C-155.36122555 103.94339806 -156.36201826 111.85885341 -156.3125 120.625 C-156.30686035 121.67751953 -156.3012207 122.73003906 -156.29541016 123.81445312 C-156.06721756 138.59048872 -152.63038916 151.40788867 -147 165 C-146.52175781 166.19625 -146.04351562 167.3925 -145.55078125 168.625 C-144.03870883 171.91575711 -142.36168045 174.55145771 -140.1875 177.4375 C-139.48367187 178.37722656 -138.77984375 179.31695312 -138.0546875 180.28515625 C-137.37664062 181.18105469 -136.69859375 182.07695312 -136 183 C-135.44570312 183.76183594 -134.89140625 184.52367187 -134.3203125 185.30859375 C-127.81048459 194.23009365 -119.3145716 202.65702248 -109 207 C-109 207.66 -109 208.32 -109 209 C-108.195625 209.2475 -107.39125 209.495 -106.5625 209.75 C-102.25675857 211.26078647 -98.14635993 213.10188856 -94 215 C-92.91727494 237.77732719 -96.65146415 261.01452536 -108 281 C-108.66 281 -109.32 281 -110 281 C-110.33 282.32 -110.66 283.64 -111 285 C-111.66 285 -112.32 285 -113 285 C-113.37125 285.86625 -113.37125 285.86625 -113.75 286.75 C-115.22820473 289.41076851 -116.58314039 291.13556544 -119 293 C-129.37762258 292.20172134 -139.45024937 281.48233376 -147 275 C-148.26650391 273.91912109 -148.26650391 273.91912109 -149.55859375 272.81640625 C-178.20560725 247.74468305 -199.32984821 209.9108916 -201.89160156 171.45654297 C-203.3115323 139.27784227 -203.3115323 139.27784227 -200 124 C-199.82227051 123.17580566 -199.64454102 122.35161133 -199.46142578 121.50244141 C-190.0421659 79.08205145 -165.33413225 43.00997589 -129 19 C-91.06650021 -4.89749987 -43.24039244 -12.04434538 0 0 Z " fill="#000101" transform="translate(202,5)"/>
<path d="M0 0 C0 0.66 0 1.32 0 2 C0.721875 2.268125 1.44375 2.53625 2.1875 2.8125 C5.00053369 4.00022534 7.42297317 5.36578786 10 7 C10.99 7.61875 11.98 8.2375 13 8.875 C16.03481285 11.02465911 18.4057869 13.34251341 21 16 C22.15926496 16.98791864 23.32638643 17.96667063 24.5 18.9375 C27.76859089 21.70543145 30.42838208 24.5711761 33 28 C33 28.66 33 29.32 33 30 C33.66 30 34.32 30 35 30 C39.51275067 34.73772651 46 43.25224053 46 50 C46.66 50 47.32 50 48 50 C58.21696636 75.610529 63.42582551 102.81502141 56 130 C55.74476563 131.12664062 55.48953125 132.25328125 55.2265625 133.4140625 C52.08785677 146.17045367 45.68791604 159.06187165 37 169 C36.26523437 169.84175781 35.53046875 170.68351563 34.7734375 171.55078125 C27.28484456 179.97849741 27.28484456 179.97849741 24 183 C23.34 183 22.68 183 22 183 C22 183.66 22 184.32 22 185 C20.05146256 186.48842321 18.12887534 187.81639706 16.0625 189.125 C15.12990356 189.71788818 15.12990356 189.71788818 14.1784668 190.32275391 C-11.47419908 206.21973409 -36.52321706 207.32333813 -66.0625 207.125 C-68.68293928 207.11494696 -71.3033823 207.10582523 -73.92382812 207.09765625 C-80.28263513 207.07583441 -86.64129959 207.04254215 -93 207 C-92.01 206.34 -91.02 205.68 -90 205 C-84.73435888 200.78748711 -83.33182401 196.39472416 -82 190 C-81.60427529 185.75194894 -81.59922492 181.53758141 -81.62768555 177.2734375 C-81.62403488 176.03958313 -81.62038422 174.80572876 -81.61662292 173.53448486 C-81.60994656 170.17893441 -81.61657114 166.82394698 -81.62995505 163.46845245 C-81.641358 159.93909215 -81.63715526 156.40974455 -81.63520813 152.88037109 C-81.63432793 146.95600616 -81.64534795 141.03175625 -81.66381836 135.10742188 C-81.68498177 128.28069336 -81.68849418 121.45413315 -81.6822564 114.62737846 C-81.67654026 108.03112465 -81.68223482 101.43492945 -81.69342995 94.83868408 C-81.69804623 92.04468693 -81.69896277 89.25072598 -81.6968441 86.45672607 C-81.69459183 82.546609 -81.70914525 78.63664857 -81.7253418 74.7265625 C-81.72286438 73.58133118 -81.72038696 72.43609985 -81.71783447 71.25616455 C-81.77893266 61.9742775 -82.09048587 53.48538457 -88 46 C-90.37897003 45.95489639 -90.37897003 45.95489639 -93 47 C-97.05253061 52.06566326 -98.12637555 57.2815888 -98.11784363 63.6479187 C-98.11896149 64.79960541 -98.12007935 65.95129211 -98.12123108 67.13787842 C-98.11756027 68.39803772 -98.11388947 69.65819702 -98.11010742 70.95654297 C-98.10986517 72.30073039 -98.11014287 73.64491799 -98.11090088 74.98910522 C-98.11200692 77.88538049 -98.11057436 80.78163989 -98.10753441 83.67791367 C-98.10388898 88.2797853 -98.11307159 92.88157531 -98.12532043 97.48342896 C-98.12734236 98.26228577 -98.12936429 99.04114258 -98.13144749 99.84360111 C-98.13561664 101.43680708 -98.1398194 103.03001297 -98.14405501 104.62321877 C-98.17209041 115.33072837 -98.19246116 126.03806323 -98.17504883 136.74560547 C-98.16339176 143.97325463 -98.17338326 151.20053669 -98.20710641 158.42812073 C-98.22407205 162.24189086 -98.23084339 166.05499988 -98.210989 169.8687706 C-98.10831692 191.21924681 -99.3892162 211.87991881 -110 231 C-110.37640625 231.68449219 -110.7528125 232.36898437 -111.140625 233.07421875 C-118.63653305 245.79227608 -129.13636189 256.71869541 -142 264 C-142.99 263.34 -143.98 262.68 -145 262 C-143.88200014 260.66079162 -142.75538103 259.32877444 -141.625 258 C-140.99851563 257.2575 -140.37203125 256.515 -139.7265625 255.75 C-139.15679687 255.1725 -138.58703125 254.595 -138 254 C-137.34 254 -136.68 254 -136 254 C-135.67 252.68 -135.34 251.36 -135 250 C-134.34 250 -133.68 250 -133 250 C-131.50643188 246.2764039 -130.02343364 242.54903121 -128.5625 238.8125 C-128.15128906 237.76707031 -127.74007812 236.72164062 -127.31640625 235.64453125 C-124.26944652 227.2088831 -122.38539892 219.16839723 -121.375 210.25 C-121.25020264 209.20392578 -121.12540527 208.15785156 -120.99682617 207.08007812 C-120.10200518 199.39898698 -119.39438497 191.72450552 -119 184 C-119.71542969 183.88785156 -120.43085937 183.77570313 -121.16796875 183.66015625 C-124.19115998 182.95543995 -126.56322688 181.86712202 -129.3125 180.4375 C-130.19550781 179.98246094 -131.07851562 179.52742187 -131.98828125 179.05859375 C-132.65214844 178.70925781 -133.31601563 178.35992187 -134 178 C-134 177.34 -134 176.68 -134 176 C-134.88042969 175.7525 -135.76085937 175.505 -136.66796875 175.25 C-151.1135068 169.83080636 -164.46888704 151.9496742 -171.34375 138.33984375 C-172.32067895 135.91721753 -173.16149532 133.47358881 -174 131 C-174.40734375 130.02933594 -174.8146875 129.05867187 -175.234375 128.05859375 C-183.93734337 107.19706664 -185.05173472 83.49100106 -178 62 C-177.64164063 60.845 -177.28328125 59.69 -176.9140625 58.5 C-175.52976811 54.17017693 -174.12590564 50.02605138 -172 46 C-171.34 46 -170.68 46 -170 46 C-169.690625 44.7625 -169.38125 43.525 -169.0625 42.25 C-166.85729357 35.54956508 -162.3723543 30.42565976 -158 25 C-157.3503125 24.14535156 -156.700625 23.29070313 -156.03125 22.41015625 C-147.86970639 12.72617085 -134.67226004 3.05797935 -123 -2 C-122.01 -2 -121.02 -2 -120 -2 C-120 -2.66 -120 -3.32 -120 -4 C-79.62657181 -19.17891599 -39.03283551 -19.05274476 0 0 Z M-131.01171875 11.3359375 C-133 13 -133 13 -136 15 C-136 15.66 -136 16.32 -136 17 C-136.66 17 -137.32 17 -138 17 C-138 17.66 -138 18.32 -138 19 C-138.99 19.33 -139.98 19.66 -141 20 C-142.70465071 21.94523824 -144.2681635 23.87160489 -145.8125 25.9375 C-146.25682373 26.5257959 -146.70114746 27.1140918 -147.15893555 27.72021484 C-150.80748875 32.6155065 -154.12208552 37.60824457 -157 43 C-157.42796875 43.80179688 -157.8559375 44.60359375 -158.296875 45.4296875 C-169.8103783 68.81204914 -171.63038885 95.87013071 -166.39257812 121.10205078 C-166.06271951 122.69677769 -165.76922807 124.29896627 -165.484375 125.90234375 C-162.49604016 139.75541024 -154.11980938 153.27446891 -144 163 C-143.00419922 164.06347656 -143.00419922 164.06347656 -141.98828125 165.1484375 C-139.61409848 167.70590208 -139.61409848 167.70590208 -137 170 C-136.01 170 -135.02 170 -134 170 C-133.67 170.99 -133.34 171.98 -133 173 C-130.82567321 174.68755547 -130.82567321 174.68755547 -128.1875 176.1875 C-127.31480469 176.71730469 -126.44210938 177.24710938 -125.54296875 177.79296875 C-122.86688294 179.28586803 -122.86688294 179.28586803 -119 179 C-118.92979233 163.509416 -118.87695436 148.01884397 -118.84456348 132.52813816 C-118.82912135 125.33486664 -118.8080829 118.14169422 -118.77368164 110.94848633 C-118.74369766 104.6759072 -118.72440572 98.40339988 -118.71773452 92.13075107 C-118.71383739 88.81209234 -118.70313984 85.4936858 -118.68280983 82.17508125 C-118.66097395 78.46238243 -118.65803574 74.75010641 -118.65942383 71.03735352 C-118.648638 69.94762238 -118.63785217 68.85789124 -118.6267395 67.73513794 C-118.65321489 61.17360547 -119.21493315 55.99197106 -122 50 C-124.31 48.02 -126.62 46.04 -129 44 C-103.26 44 -77.52 44 -51 44 C-52.98 44.99 -54.96 45.98 -57 47 C-62.40000296 53.53307181 -61.54097448 62.64218078 -61.45410156 70.60766602 C-61.45297144 72.06710275 -61.45361016 73.52654175 -61.45587158 74.98597717 C-61.45701325 78.9235376 -61.43359355 82.86060473 -61.40557575 86.79805112 C-61.38047012 90.92197711 -61.37821291 95.045916 -61.37347412 99.16990662 C-61.36107114 106.96831125 -61.32828606 114.76649 -61.28807616 122.56479543 C-61.24327479 131.44751175 -61.22135043 140.33023919 -61.20129442 149.21304047 C-61.15955083 167.47548809 -61.08925123 185.73772585 -61 204 C-57.05768557 204.05475303 -53.11552347 204.09409065 -49.1729126 204.12016296 C-47.18501997 204.13635709 -45.19723285 204.16417632 -43.20947266 204.19226074 C-22.37283907 204.30743481 -6.88498312 197.30907604 8 183 C8.33 182.01 8.66 181.02 9 180 C9.66 180 10.32 180 11 180 C11 179.34 11 178.68 11 178 C11.66 178 12.32 178 13 178 C23.33602083 165.52908317 30.11043858 149.62770213 34 134 C34.2784375 132.99582031 34.556875 131.99164063 34.84375 130.95703125 C40.46176566 107.10647403 39.14273744 76.7588857 30 54 C29.6184375 53.00871094 29.236875 52.01742187 28.84375 50.99609375 C21.12741823 31.63106884 9.06566971 14.04863698 -9 3 C-9.66 3 -10.32 3 -11 3 C-11 2.34 -11 1.68 -11 1 C-20.48959166 -3.33670684 -29.85830418 -7.40257726 -40 -10 C-40.86753906 -10.22558594 -41.73507813 -10.45117188 -42.62890625 -10.68359375 C-73.66842364 -17.23487471 -106.88471087 -9.01995822 -131.01171875 11.3359375 Z " fill="#0EBEDC" transform="translate(227,36)"/>
<path d="M0 0 C7.92 0 15.84 0 24 0 C23.67 2.64 23.34 5.28 23 8 C23.38806198 10.61542002 23.38806198 10.61542002 24 13 C24.08773943 14.84680549 24.12625434 16.69632342 24.12698364 18.54521179 C24.12980347 19.64830185 24.13262329 20.75139191 24.13552856 21.88790894 C24.13350433 23.08851959 24.1314801 24.28913025 24.12939453 25.52612305 C24.13114685 26.79826157 24.13289917 28.07040009 24.13470459 29.38108826 C24.13925771 32.8648333 24.13749747 36.34854867 24.1343255 39.83229423 C24.13178823 43.48714002 24.13414351 47.14198333 24.13571167 50.79682922 C24.13753052 56.93934584 24.1351357 63.08185044 24.13037109 69.22436523 C24.12494113 76.30600061 24.12668305 83.38760714 24.1321975 90.4692418 C24.13675121 96.56286924 24.13736779 102.65648805 24.13475883 108.75011665 C24.13320689 112.38330387 24.13297216 116.01647759 24.13629532 119.64966393 C24.13974856 123.70876109 24.13494753 127.76780946 24.12939453 131.8269043 C24.13141876 133.0173938 24.13344299 134.2078833 24.13552856 135.43444824 C24.08889284 153.91110716 24.08889284 153.91110716 22 156 C21.79395915 157.32781878 21.6337041 158.66295895 21.5 160 C21.11111111 163.88888889 21.11111111 163.88888889 20 165 C19.89209472 166.45672132 19.81444813 167.91571011 19.75 169.375 C18.22364688 186.06948724 4.66188163 201.19842073 -7.30078125 211.79296875 C-10.70968581 214.58027856 -14.17127793 216.83279883 -18 219 C-18.99 218.34 -19.98 217.68 -21 217 C-19.88200014 215.66079162 -18.75538103 214.32877444 -17.625 213 C-16.68527344 211.88625 -16.68527344 211.88625 -15.7265625 210.75 C-15.15679687 210.1725 -14.58703125 209.595 -14 209 C-13.34 209 -12.68 209 -12 209 C-11.505 207.02 -11.505 207.02 -11 205 C-10.34 205 -9.68 205 -9 205 C-3.87135497 192.23968435 -3.87135497 192.23968435 0.375 179.16796875 C1.16806616 176.4170205 2.07340583 173.70850604 3 171 C3.66 171 4.32 171 5 171 C4.98839844 169.86820313 4.97679688 168.73640625 4.96484375 167.5703125 C4.95546546 166.08854331 4.9463653 164.60677235 4.9375 163.125 C4.92912109 162.37863281 4.92074219 161.63226563 4.91210938 160.86328125 C4.88671875 155.2265625 4.88671875 155.2265625 6 153 C6.07116382 150.62597499 6.08409085 148.24999323 6.0625 145.875 C6.05347656 144.59367188 6.04445313 143.31234375 6.03515625 141.9921875 C6.02355469 141.00476563 6.01195313 140.01734375 6 139 C5.34 138.67 4.68 138.34 4 138 C4.33 137.01 4.66 136.02 5 135 C5.09561251 133.41111609 5.13490022 131.81853983 5.14044189 130.22679138 C5.14615204 129.24424881 5.15186218 128.26170624 5.15774536 127.24938965 C5.15886322 126.17249878 5.15998108 125.09560791 5.16113281 123.98608398 C5.16609772 122.85078751 5.17106262 121.71549103 5.17617798 120.54579163 C5.19081562 116.77921955 5.19760557 113.01268964 5.203125 109.24609375 C5.20887672 106.62874856 5.21463445 104.01140339 5.22039795 101.39405823 C5.22997117 96.6014238 5.23586624 91.80879847 5.2388947 87.01615566 C5.24336562 79.98042787 5.26086738 72.9448953 5.2898953 65.90922683 C5.31420796 59.80261782 5.3218436 53.6960887 5.32357025 47.58943367 C5.32659084 44.99918622 5.33459922 42.40893948 5.34775543 39.81872368 C5.36488614 36.18555997 5.3629178 32.55286589 5.35644531 28.91967773 C5.3656601 27.85695648 5.37487488 26.79423523 5.3843689 25.6993103 C5.3468494 18.94692049 4.18507875 13.36350908 2 7 C1.66053607 5.66821431 1.32657317 4.33500519 1 3 C0.67 2.01 0.34 1.02 0 0 Z " fill="#0CC0DE" transform="translate(103,81)"/>
<path d="M0 0 C0 0.66 0 1.32 0 2 C1.98 2.99 1.98 2.99 4 4 C1.69 4 -0.62 4 -3 4 C-3.33 4.66 -3.66 5.32 -4 6 C-3.01 6.33 -2.02 6.66 -1 7 C-1.33 7.66 -1.66 8.32 -2 9 C-3.50539661 8.05016642 -5.00420347 7.08988109 -6.5 6.125 C-7.3353125 5.59132813 -8.170625 5.05765625 -9.03125 4.5078125 C-10.00578125 3.76144531 -10.00578125 3.76144531 -11 3 C-11 2.34 -11 1.68 -11 1 C-11.721875 0.88269531 -12.44375 0.76539063 -13.1875 0.64453125 C-16.07554437 -0.01731225 -18.34687794 -1.00616094 -21 -2.3125 C-45.7383181 -13.80170546 -75.57182341 -14.60826343 -101.1875 -5.3125 C-112.16764281 -1.0560467 -122.05791956 4.74386033 -131.01171875 12.43359375 C-133 14 -133 14 -136 15 C-136 15.66 -136 16.32 -136 17 C-136.66 17 -137.32 17 -138 17 C-138 17.66 -138 18.32 -138 19 C-139.64348159 20.68953361 -141.31442265 22.35246106 -143 24 C-162.0780377 46.36617346 -170.18249073 75.90613602 -168 105 C-167.41557712 110.42269593 -166.50079117 115.76349534 -165.39257812 121.10205078 C-165.06271951 122.69677769 -164.76922807 124.29896627 -164.484375 125.90234375 C-161.49982684 139.73785627 -153.12740173 153.29942363 -143 163 C-142.40960938 163.62390625 -141.81921875 164.2478125 -141.2109375 164.890625 C-138.84884712 167.38071042 -137.30261472 168.89912843 -134 170 C-133.4225 170.598125 -132.845 171.19625 -132.25 171.8125 C-128.38836019 175.56687204 -124.2573629 177.68565927 -119 179 C-119 140.39 -119 101.78 -119 62 C-118.67 62 -118.34 62 -118 62 C-117.95330407 77.33346006 -117.91802297 92.66691685 -117.89637566 108.00043201 C-117.88605781 115.1198597 -117.8719878 122.23924323 -117.84912109 129.35864258 C-117.82707741 136.22506315 -117.81544181 143.09143775 -117.81024551 149.95789146 C-117.80654086 152.58183198 -117.79930694 155.20576989 -117.78853989 157.82969093 C-117.7740908 161.49564741 -117.77201931 165.16141236 -117.77294922 168.82739258 C-117.76575867 169.9199939 -117.75856812 171.01259521 -117.75115967 172.13830566 C-117.753909 173.13529984 -117.75665833 174.13229401 -117.75949097 175.15950012 C-117.75764738 176.02690732 -117.75580379 176.89431452 -117.75390434 177.78800678 C-118 180 -118 180 -120 183 C-119.01 183.33 -118.02 183.66 -117 184 C-116.97307516 186.29160319 -116.95363876 188.58329546 -116.9375 190.875 C-116.92589844 192.15117187 -116.91429688 193.42734375 -116.90234375 194.7421875 C-117 198 -117 198 -118 200 C-118.2322646 202.71262116 -118.41936235 205.40773126 -118.5625 208.125 C-118.62727539 209.25615234 -118.62727539 209.25615234 -118.69335938 210.41015625 C-118.7994832 212.27321888 -118.90025001 214.13658524 -119 216 C-119.66 216 -120.32 216 -121 216 C-121 217.65 -121 219.3 -121 221 C-121.33 221 -121.66 221 -122 221 C-121.08412849 208.65983656 -120.03571246 196.33055633 -119 184 C-119.76981201 183.85957275 -120.53962402 183.71914551 -121.33276367 183.57446289 C-124.30936784 182.9333691 -126.615525 181.839927 -129.3125 180.4375 C-130.19550781 179.98246094 -131.07851562 179.52742187 -131.98828125 179.05859375 C-132.65214844 178.70925781 -133.31601563 178.35992187 -134 178 C-134 177.34 -134 176.68 -134 176 C-134.88042969 175.7525 -135.76085937 175.505 -136.66796875 175.25 C-151.1135068 169.83080636 -164.46888704 151.9496742 -171.34375 138.33984375 C-172.32067895 135.91721753 -173.16149532 133.47358881 -174 131 C-174.40734375 130.02933594 -174.8146875 129.05867187 -175.234375 128.05859375 C-183.93734337 107.19706664 -185.05173472 83.49100106 -178 62 C-177.64164063 60.845 -177.28328125 59.69 -176.9140625 58.5 C-175.52976811 54.17017693 -174.12590564 50.02605138 -172 46 C-171.34 46 -170.68 46 -170 46 C-169.690625 44.7625 -169.38125 43.525 -169.0625 42.25 C-166.85729357 35.54956508 -162.3723543 30.42565976 -158 25 C-157.3503125 24.14535156 -156.700625 23.29070313 -156.03125 22.41015625 C-147.86970639 12.72617085 -134.67226004 3.05797935 -123 -2 C-122.01 -2 -121.02 -2 -120 -2 C-120 -2.66 -120 -3.32 -120 -4 C-79.62657181 -19.17891599 -39.03283551 -19.05274476 0 0 Z " fill="#10BCDA" transform="translate(227,36)"/>
<path d="M0 0 C2.42739682 0 4.77385134 -0.29949552 7.1875 -0.5625 C11.71211063 -0.99114732 15.55572384 -0.88885523 20 0 C20.33 -0.66 20.66 -1.32 21 -2 C21 -1.34 21 -0.68 21 0 C22.32 0 23.64 0 25 0 C25.495 1.485 25.495 1.485 26 3 C26.33 2.01 26.66 1.02 27 0 C27.66 0 28.32 0 29 0 C29 2.64 29 5.28 29 8 C28.01 7.67 27.02 7.34 26 7 C25.505 6.01 25.505 6.01 25 5 C24.67 6.32 24.34 7.64 24 9 C22.37585622 9.19477739 20.75063577 9.38059458 19.125 9.5625 C18.22007812 9.66691406 17.31515625 9.77132813 16.3828125 9.87890625 C14 10 14 10 12 9 C11.67 9.66 11.34 10.32 11 11 C11 10.34 11 9.68 11 9 C10.01 9 9.02 9 8 9 C8 12.3 8 15.6 8 19 C7.34 19 6.68 19 6 19 C5.505 18.01 5.505 18.01 5 17 C4.67 17.66 4.34 18.32 4 19 C3.34 19 2.68 19 2 19 C1.505 14.05 1.505 14.05 1 9 C-1.97 8.67 -4.94 8.34 -8 8 C-8 8.99 -8 9.98 -8 11 C-6.68 11 -5.36 11 -4 11 C-3.67 11.99 -3.34 12.98 -3 14 C-2.67 13.01 -2.34 12.02 -2 11 C-1.34 11 -0.68 11 0 11 C-0.66 13.64 -1.32 16.28 -2 19 C-2.66 19 -3.32 19 -4 19 C-4.33 18.01 -4.66 17.02 -5 16 C-5.33 16.99 -5.66 17.98 -6 19 C-6.66 19 -7.32 19 -8 19 C-8 18.34 -8 17.68 -8 17 C-8.99 17 -9.98 17 -11 17 C-11.33 17.99 -11.66 18.98 -12 20 C-12.60328125 19.98839844 -13.2065625 19.97679687 -13.828125 19.96484375 C-14.62734375 19.95582031 -15.4265625 19.94679688 -16.25 19.9375 C-17.03890625 19.92589844 -17.8278125 19.91429687 -18.640625 19.90234375 C-21.30478142 19.93296498 -21.30478142 19.93296498 -25 21 C-25 18.03 -25 15.06 -25 12 C-25.66 11.67 -26.32 11.34 -27 11 C-21.92579497 10.28783087 -17.13234701 10 -12 10 C-11.67 9.67 -11.34 9.34 -11 9 C-11.99 8.67 -12.98 8.34 -14 8 C-14 5.36 -14 2.72 -14 0 C-8.50098691 -2.47455589 -5.55251715 -1.66575514 0 0 Z " fill="#241807" transform="translate(165,255)"/>
<path d="M0 0 C0 0.66 0 1.32 0 2 C1.98 2.99 1.98 2.99 4 4 C1.69 4 -0.62 4 -3 4 C-3.33 4.66 -3.66 5.32 -4 6 C-2.515 6.495 -2.515 6.495 -1 7 C-1.33 7.66 -1.66 8.32 -2 9 C-3.50539661 8.05016642 -5.00420347 7.08988109 -6.5 6.125 C-7.3353125 5.59132813 -8.170625 5.05765625 -9.03125 4.5078125 C-10.00578125 3.76144531 -10.00578125 3.76144531 -11 3 C-11 2.34 -11 1.68 -11 1 C-11.721875 0.88269531 -12.44375 0.76539063 -13.1875 0.64453125 C-16.07554437 -0.01731225 -18.34687794 -1.00616094 -21 -2.3125 C-45.19180166 -13.54788708 -74.57519844 -14.71189774 -99.71875 -5.74072266 C-104.04703669 -4.12839666 -108.13319917 -2.57786722 -112 0 C-112.99 0 -113.98 0 -115 0 C-115 -0.66 -115 -1.32 -115 -2 C-114.34 -2.33 -113.68 -2.66 -113 -3 C-117.55677517 -2.57280233 -120.41353578 -0.5570298 -124.03515625 2.0390625 C-126 3 -126 3 -128.24609375 2.6484375 C-128.82488281 2.43445313 -129.40367187 2.22046875 -130 2 C-123.375 -2 -123.375 -2 -120 -2 C-120 -2.66 -120 -3.32 -120 -4 C-79.62657181 -19.17891599 -39.03283551 -19.05274476 0 0 Z " fill="#23A9BF" transform="translate(227,36)"/>
<path d="M0 0 C4.95 0 9.9 0 15 0 C17.68330582 8.58657863 19.86502723 17.26503526 22 26 C22.66 26 23.32 26 24 26 C23.43393721 30.69023454 22.81462495 35.34500026 22 40 C19.36 40 16.72 40 14 40 C11 29 8 18 5 7 C4.67 17.56 4.34 28.12 4 39 C4.99 39.33 5.98 39.66 7 40 C4.36 40 1.72 40 -1 40 C0.98 39.505 0.98 39.505 3 39 C3 26.46 3 13.92 3 1 C2.01 0.67 1.02 0.34 0 0 Z " fill="#E95353" transform="translate(176,80)"/>
<path d="M0 0 C5.28 0 10.56 0 16 0 C14.68 0.33 13.36 0.66 12 1 C12 13.54 12 26.08 12 39 C13.32 39.33 14.64 39.66 16 40 C10.06 40 4.12 40 -2 40 C-0.515 39.505 -0.515 39.505 1 39 C0.67 29.43 0.34 19.86 0 10 C-0.66 12.64 -1.32 15.28 -2 18 C-2.33 18 -2.66 18 -3 18 C-3.43171933 11.52421002 -1.8404993 6.21168515 0 0 Z " fill="#F9514F" transform="translate(205,80)"/>
<path d="M0 0 C0.33 0 0.66 0 1 0 C1 1.65 1 3.3 1 5 C0.01 5 -0.98 5 -2 5 C-2.4640625 6.4540625 -2.4640625 6.4540625 -2.9375 7.9375 C-4 11 -4 11 -5 12 C-4.505 13.485 -4.505 13.485 -4 15 C-3.01 15.495 -3.01 15.495 -2 16 C-2.1015625 18.25 -2.1015625 18.25 -3 21 C-5.14359363 22.59410907 -7.03245467 23.7844966 -9.375 25 C-10.00768799 25.34248779 -10.64037598 25.68497559 -11.29223633 26.0378418 C-13.18350404 27.04910662 -15.08723898 28.03009904 -17 29 C-18.47919922 29.75216797 -18.47919922 29.75216797 -19.98828125 30.51953125 C-40.49218094 40.3412256 -62.87045815 39.27400592 -85.0625 39.125 C-87.68293928 39.11494696 -90.3033823 39.10582523 -92.92382812 39.09765625 C-99.28263513 39.07583441 -105.64129959 39.04254215 -112 39 C-108.25627797 36.95023301 -105.77753122 36.82829404 -101.484375 37.0234375 C-100.23398438 37.075 -98.98359375 37.1265625 -97.6953125 37.1796875 C-95.74238281 37.27636719 -95.74238281 37.27636719 -93.75 37.375 C-92.43257812 37.43171875 -91.11515625 37.4884375 -89.7578125 37.546875 C-86.50465594 37.68831659 -83.25227448 37.83973014 -80 38 C-80 37.34 -80 36.68 -80 36 C-79.2157666 35.99589111 -78.4315332 35.99178223 -77.62353516 35.98754883 C-50.81533529 35.74219629 -31.15627818 32.62656064 -11 14 C-10.67 13.34 -10.34 12.68 -10 12 C-9.34 12 -8.68 12 -8 12 C-8 11.34 -8 10.68 -8 10 C-7.34 10 -6.68 10 -6 10 C-5.62875 9.195625 -5.62875 9.195625 -5.25 8.375 C-3.69915043 5.42838581 -1.91694442 2.72082434 0 0 Z " fill="#0FBEDB" transform="translate(246,204)"/>
<path d="M0 0 C26.4 0 52.8 0 80 0 C79.67 0.66 79.34 1.32 79 2 C77.3125769 1.97643433 77.3125769 1.97643433 75.59106445 1.95239258 C71.40721835 1.89798784 67.22340338 1.86361164 63.03930664 1.83520508 C61.23033383 1.82014245 59.4213974 1.79968823 57.61254883 1.77368164 C55.00853485 1.7371868 52.4050048 1.72024843 49.80078125 1.70703125 C48.99538406 1.69154739 48.18998688 1.67606354 47.36018372 1.66011047 C42.79775459 1.65875093 39.4434824 1.70249588 36 5 C31.69206633 12.6737006 31.44411256 20.06560302 31.53344727 28.68530273 C31.53289729 30.03524461 31.53051495 31.38518678 31.52645874 32.73512268 C31.52131241 35.62488674 31.52826715 38.51426888 31.54471016 41.40398979 C31.57003935 45.99299359 31.56348583 50.58162952 31.55223083 55.17066956 C31.52912773 66.57368111 31.54729998 77.97658413 31.57373047 89.37957764 C31.59379153 98.23795438 31.60203771 107.09603045 31.57679409 115.95440823 C31.56701474 119.75959938 31.56706481 123.56421548 31.59158516 127.36935234 C31.69283243 143.50801932 31.45655232 158.62015971 26 174 C25.67 174 25.34 174 25 174 C24.95758277 171.66705225 24.95907063 169.33297433 25 167 C25.33 166.67 25.66 166.34 26 166 C26.20604085 164.67218122 26.3662959 163.33704105 26.5 162 C26.88888889 158.11111111 26.88888889 158.11111111 28 157 C29.30228302 149.382035 29.14255684 141.59053 29.12939453 133.89038086 C29.13114685 132.61590591 29.13289917 131.34143097 29.13470459 130.02833557 C29.13922824 126.56148202 29.13751052 123.09465853 29.1343255 119.62780452 C29.13177608 115.98319724 29.13414654 112.33859237 29.13571167 108.69398499 C29.13752563 102.57715396 29.13514715 96.46033504 29.13037109 90.34350586 C29.12492753 83.29071614 29.12669494 76.23795532 29.1321975 69.1851663 C29.13674779 63.10758943 29.13736989 57.03002121 29.13475883 50.95244318 C29.1332069 47.33221721 29.13297245 43.71200479 29.13629532 40.09177971 C29.13974281 36.05457749 29.13495306 32.01742447 29.12939453 27.98022461 C29.13141876 26.79399506 29.13344299 25.6077655 29.13552856 24.3855896 C29.1231184 19.50664553 29.03501633 14.77544284 28.36691284 9.93873596 C28 6 28 6 30 2 C22.41 2.33 14.82 2.66 7 3 C7 3.66 7 4.32 7 5 C7.66 5.33 8.32 5.66 9 6 C4.58763974 6 3.21615077 3.9302707 0 1 C0 0.67 0 0.34 0 0 Z " fill="#26A4B9" transform="translate(97,79)"/>
<path d="M0 0 C0.33 0 0.66 0 1 0 C1 48.84 1 97.68 1 148 C1.99 147.67 2.98 147.34 4 147 C6.69851861 146.9020815 9.36463599 146.85867581 12.0625 146.875 C12.82167725 146.87693359 13.58085449 146.87886719 14.36303711 146.88085938 C19.96380538 146.92379085 25.43984276 147.29394829 31 148 C27.36693942 150.42204038 25.68180977 150.23302891 21.36328125 150.1953125 C19.41518555 150.18564453 19.41518555 150.18564453 17.42773438 150.17578125 C16.05598693 150.1590706 14.68424214 150.14214071 13.3125 150.125 C11.92904282 150.11496674 10.54557873 150.10584149 9.16210938 150.09765625 C5.77456548 150.07404967 2.38736928 150.04112037 -1 150 C-1.02333501 130.73774043 -1.04098215 111.47548372 -1.05181217 92.21321297 C-1.05697384 83.26990411 -1.0640141 74.32660401 -1.07543945 65.38330078 C-1.08539021 57.59055191 -1.09185437 49.7978094 -1.09408849 42.00505435 C-1.09539493 37.87684714 -1.09847659 33.7486581 -1.10573006 29.6204567 C-1.11249643 25.738174 -1.11461569 21.85591703 -1.11310768 17.973629 C-1.11338373 16.54574189 -1.11538521 15.11785395 -1.11920547 13.68997192 C-1.12415226 11.74637467 -1.12239531 9.80276375 -1.12025452 7.85916138 C-1.12117631 6.76960207 -1.1220981 5.68004276 -1.12304783 4.55746651 C-1 2 -1 2 0 0 Z " fill="#01161F" transform="translate(167,90)"/>
<path d="M0 0 C38.94 0 77.88 0 118 0 C118 0.99 118 1.98 118 3 C79.06 3 40.12 3 0 3 C0 2.01 0 1.02 0 0 Z " fill="#87C063" transform="translate(100,67)"/>
<path d="M0 0 C3.96224768 2.84265465 6.55932492 5.99743854 7.6171875 10.8046875 C7.78762348 14.5041509 7.8744709 17.6104298 5.859375 20.8125 C4.5 22.1875 4.5 22.1875 2 24 C-8.43842365 21.05582923 -8.43842365 21.05582923 -11 17 C-12.1304478 13.16986437 -12.62239296 9.70289242 -11.23046875 5.89453125 C-8.34062317 0.64518629 -5.98811024 -1.01684891 0 0 Z " fill="#091704" transform="translate(199,193)"/>
<path d="M0 0 C0.33 0 0.66 0 1 0 C1.04669593 15.33346006 1.08197703 30.66691685 1.10362434 46.00043201 C1.11394219 53.1198597 1.1280122 60.23924323 1.15087891 67.35864258 C1.17292259 74.22506315 1.18455819 81.09143775 1.18975449 87.95789146 C1.19345914 90.58183198 1.20069306 93.20576989 1.21146011 95.82969093 C1.2259092 99.49564741 1.22798069 103.16141236 1.22705078 106.82739258 C1.23424133 107.9199939 1.24143188 109.01259521 1.24884033 110.13830566 C1.246091 111.13529984 1.24334167 112.13229401 1.24050903 113.15950012 C1.24235262 114.02690732 1.24419621 114.89431452 1.24609566 115.78800678 C1 118 1 118 -1 121 C0.485 121.495 0.485 121.495 2 122 C2.02692484 124.29160319 2.04636124 126.58329546 2.0625 128.875 C2.07410156 130.15117187 2.08570313 131.42734375 2.09765625 132.7421875 C2 136 2 136 1 138 C0.7677354 140.71262116 0.58063765 143.40773126 0.4375 146.125 C0.39431641 146.87910156 0.35113281 147.63320312 0.30664062 148.41015625 C0.2005168 150.27321888 0.09974999 152.13658524 0 154 C-0.66 154 -1.32 154 -2 154 C-2 155.65 -2 157.3 -2 159 C-2.33 159 -2.66 159 -3 159 C-2.08412849 146.65983656 -1.03571246 134.33055633 0 122 C-0.76981201 121.85957275 -1.53962402 121.71914551 -2.33276367 121.57446289 C-5.30936784 120.9333691 -7.615525 119.839927 -10.3125 118.4375 C-11.19550781 117.98246094 -12.07851562 117.52742188 -12.98828125 117.05859375 C-13.65214844 116.70925781 -14.31601563 116.35992187 -15 116 C-15 115.34 -15 114.68 -15 114 C-16.2065625 113.7215625 -16.2065625 113.7215625 -17.4375 113.4375 C-22.31923861 111.46767565 -25.97673753 108.34377814 -30 105 C-28.02 104.01 -28.02 104.01 -26 103 C-26 102.34 -26 101.68 -26 101 C-22.6092481 102.45317939 -20.58699688 104.41300312 -18 107 C-17.01 107.33 -16.02 107.66 -15 108 C-14.4225 108.598125 -13.845 109.19625 -13.25 109.8125 C-9.38836019 113.56687204 -5.2573629 115.68565927 0 117 C0 78.39 0 39.78 0 0 Z " fill="#25ACC2" transform="translate(108,98)"/>
<path d="M0 0 C-0.99 0.33 -1.98 0.66 -3 1 C-3.18175781 1.91652344 -3.18175781 1.91652344 -3.3671875 2.8515625 C-4.31372064 6.06510094 -6.28185706 6.72489252 -9.125 8.375 C-12.69740175 10.52587387 -15.95287063 12.65658409 -19.0625 15.4375 C-22 18 -22 18 -24 18 C-24 18.66 -24 19.32 -24 20 C-24.66 20 -25.32 20 -26 20 C-26 20.66 -26 21.32 -26 22 C-27.15239083 23.15239083 -28.3091793 24.30073555 -29.48828125 25.42578125 C-32.30674144 28.36076693 -34.62154322 31.70612343 -37 35 C-37.66 33.68 -38.32 32.36 -39 31 C-37.71034824 29.62437146 -36.37310707 28.29233607 -35 27 C-34.34 27 -33.68 27 -33 27 C-33.66 25.68 -34.32 24.36 -35 23 C-38.12197478 24.3089572 -38.12197478 24.3089572 -40 27 C-41.32 26.67 -42.64 26.34 -44 26 C-34.94278738 16.64088029 -25.82171368 7.43438759 -13 4 C-10.65334289 2.71273664 -8.37719278 1.35329207 -6.11328125 -0.07421875 C-3.59987408 -1.17528622 -2.52538477 -0.94060606 0 0 Z " fill="#15B7D1" transform="translate(115,33)"/>
<path d="M0 0 C0.95902897 3.22087351 1.11560939 6.09962965 1.0957489 9.45378113 C1.09159973 10.56220871 1.08745056 11.67063629 1.08317566 12.81265259 C1.07337173 14.02456268 1.06356781 15.23647278 1.0534668 16.48510742 C1.04707184 17.76536301 1.04067688 19.04561859 1.03408813 20.3646698 C1.01617157 23.87790241 0.99159904 27.39105852 0.96532798 30.90423751 C0.94378515 33.8479382 0.9251478 36.7916547 0.90639621 39.73537427 C0.86186794 46.69658861 0.81160034 53.65774616 0.75805664 60.61889648 C0.70324292 67.76110431 0.65910873 74.90332188 0.62020558 82.04563254 C0.58622266 88.20139635 0.54483903 94.35708253 0.49788028 100.51276094 C0.47002618 104.17803045 0.44492308 107.8432626 0.4272213 111.50859642 C0.22179808 152.28357788 0.22179808 152.28357788 -3.57246399 156.92253113 C-4.04355087 157.27809586 -4.51463776 157.63366058 -5 158 C-4.85831863 156.56208484 -4.71148957 155.1246763 -4.5625 153.6875 C-4.48128906 152.88699219 -4.40007812 152.08648437 -4.31640625 151.26171875 C-4 149 -4 149 -3 146 C-2.90163909 144.12351309 -2.86232856 142.24371949 -2.85523987 140.3646698 C-2.84834137 139.1912352 -2.84144287 138.0178006 -2.83433533 136.80880737 C-2.83172195 135.51991608 -2.82910858 134.23102478 -2.82641602 132.90307617 C-2.82011015 131.53307383 -2.81334431 130.16307354 -2.80615234 128.79307556 C-2.79148359 125.84164545 -2.7797583 122.89022324 -2.77020454 119.9387722 C-2.75475008 115.26996019 -2.73080042 110.60121592 -2.70530701 105.93244934 C-2.63411156 92.65577475 -2.57434848 79.37906133 -2.52319336 66.10229492 C-2.49486903 58.77052849 -2.45947609 51.43882943 -2.41653961 44.10713369 C-2.38979934 39.46822832 -2.37187433 34.82939917 -2.36050236 30.19043195 C-2.35135952 27.30022845 -2.33398963 24.41011729 -2.31432343 21.51996803 C-2.30331762 19.54593062 -2.30209984 17.5718462 -2.30119324 15.59777832 C-2.29147491 14.41588425 -2.28175659 13.23399017 -2.27174377 12.01628113 C-2.26751184 10.9933002 -2.2632799 9.97031927 -2.25891972 8.91633892 C-1.97330093 5.69927534 -1.1298275 3.015869 0 0 Z " fill="#01252F" transform="translate(130,88)"/>
<path d="M0 0 C0.66 0 1.32 0 2 0 C-0.16468521 16.7763104 -14.59881335 31.86010064 -27 42 C-29.61437516 43.83212117 -32.21824067 45.42541925 -35 47 C-35.99 46.34 -36.98 45.68 -38 45 C-36.88200014 43.66079162 -35.75538103 42.32877444 -34.625 41 C-33.68527344 39.88625 -33.68527344 39.88625 -32.7265625 38.75 C-31.87191406 37.88375 -31.87191406 37.88375 -31 37 C-30.34 37 -29.68 37 -29 37 C-28.67 35.68 -28.34 34.36 -28 33 C-27.34 33 -26.68 33 -26 33 C-22.29690743 23.76786598 -18.66395926 14.59458496 -16 5 C-14.83693557 8.54950034 -15.07634951 11.55823948 -15.4375 15.25 C-15.53933594 16.32765625 -15.64117187 17.4053125 -15.74609375 18.515625 C-15.82988281 19.33546875 -15.91367188 20.1553125 -16 21 C-15.01 20.67 -14.02 20.34 -13 20 C-12.67 20.33 -12.34 20.66 -12 21 C-9.97922654 21.05901922 -9.97922654 21.05901922 -8 20 C-6.95103425 17.44776515 -6.95103425 17.44776515 -6 14 C-4.75182386 11.1406161 -3.43914714 8.31603378 -2.12109375 5.48828125 C-0.92733942 2.95099444 -0.92733942 2.95099444 0 0 Z " fill="#14B9D4" transform="translate(120,253)"/>
<path d="M0 0 C0.33 0.66 0.66 1.32 1 2 C2.32 2 3.64 2 5 2 C5.33 2.99 5.66 3.98 6 5 C6.33 4.01 6.66 3.02 7 2 C7.66 2 8.32 2 9 2 C9 4.64 9 7.28 9 10 C8.01 9.67 7.02 9.34 6 9 C5.67 8.34 5.34 7.68 5 7 C4.67 8.32 4.34 9.64 4 11 C2.37585622 11.19477739 0.75063577 11.38059458 -0.875 11.5625 C-1.77992188 11.66691406 -2.68484375 11.77132813 -3.6171875 11.87890625 C-6 12 -6 12 -8 11 C-8.33 11.66 -8.66 12.32 -9 13 C-9 12.34 -9 11.68 -9 11 C-9.99 11 -10.98 11 -12 11 C-12 14.3 -12 17.6 -12 21 C-12.66 21 -13.32 21 -14 21 C-14.33 20.34 -14.66 19.68 -15 19 C-15.33 19.66 -15.66 20.32 -16 21 C-16.66 21 -17.32 21 -18 21 C-18.33 17.7 -18.66 14.4 -19 11 C-17.35 10.34 -15.7 9.68 -14 9 C-14 8.01 -14 7.02 -14 6 C-14.99 5.34 -15.98 4.68 -17 4 C-11.5534304 0.3689536 -6.25457038 0.85120136 0 2 C0 1.34 0 0.68 0 0 Z " fill="#322515" transform="translate(185,253)"/>
<path d="M0 0 C-0.33 1.32 -0.66 2.64 -1 4 C0.32 3.34 1.64 2.68 3 2 C3.99 2.99 3.99 2.99 5 4 C2.69340323 4.81336252 0.38192987 5.59967884 -1.9375 6.375 C-2.86852539 6.70757812 -2.86852539 6.70757812 -3.81835938 7.046875 C-20.78287762 12.61976022 -39.48132626 11.24304677 -57.0625 11.125 C-59.68293928 11.11494696 -62.3033823 11.10582523 -64.92382812 11.09765625 C-71.28263513 11.07583441 -77.64129959 11.04254215 -84 11 C-80.25627797 8.95023301 -77.77753122 8.82829404 -73.484375 9.0234375 C-72.23398438 9.075 -70.98359375 9.1265625 -69.6953125 9.1796875 C-67.74238281 9.27636719 -67.74238281 9.27636719 -65.75 9.375 C-64.43257812 9.43171875 -63.11515625 9.4884375 -61.7578125 9.546875 C-58.50465594 9.68831659 -55.25227448 9.83973014 -52 10 C-52 9.34 -52 8.68 -52 8 C-51.2157666 7.99589111 -50.4315332 7.99178223 -49.62353516 7.98754883 C-32.93136329 7.83477965 -14.95236111 0 0 0 Z " fill="#249BB0" transform="translate(218,232)"/>
<path d="M0 0 C0.33 0 0.66 0 1 0 C1 3.63 1 7.26 1 11 C0.34 10.67 -0.32 10.34 -1 10 C-1 9.34 -1 8.68 -1 8 C-1.66 8 -2.32 8 -3 8 C-3 8.99 -3 9.98 -3 11 C-3.62648437 11.06058594 -4.25296875 11.12117188 -4.8984375 11.18359375 C-5.71570313 11.26738281 -6.53296875 11.35117187 -7.375 11.4375 C-8.18710938 11.51871094 -8.99921875 11.59992188 -9.8359375 11.68359375 C-12.04272805 11.89090114 -12.04272805 11.89090114 -14 13 C-14 12.34 -14 11.68 -14 11 C-15.65 11 -17.3 11 -19 11 C-19 10.34 -19 9.68 -19 9 C-18.34 8.67 -17.68 8.34 -17 8 C-17.66 7.67 -18.32 7.34 -19 7 C-18.67 5.35 -18.34 3.7 -18 2 C-13.05007503 0.92974595 -8.32592997 0.95382607 -3.29296875 1.0625 C-1.03471457 1.26390712 -1.03471457 1.26390712 0 0 Z " fill="#2B210F" transform="translate(219,252)"/>
<path d="M0 0 C3 0.625 3 0.625 5.875 2.375 C8.99364287 7.14468909 9.10763472 12.0715487 8 17.625 C6.08984375 19.99609375 6.08984375 19.99609375 4 21.625 C3.34 21.625 2.68 21.625 2 21.625 C2.24363281 20.820625 2.24363281 20.820625 2.4921875 20 C3.0997828 17.15832354 3.13226278 14.53011293 3.125 11.625 C3.12757813 10.59375 3.13015625 9.5625 3.1328125 8.5 C3.01863671 6.02842991 2.71350656 3.9807042 2 1.625 C0.01508358 1.89176204 0.01508358 1.89176204 -2 2.625 C-3.0690003 5.83200089 -3.13332529 8.19492069 -3.125 11.5625 C-3.12757813 12.60277344 -3.13015625 13.64304688 -3.1328125 14.71484375 C-3.01932023 17.20165971 -2.71928571 19.25592407 -2 21.625 C-4.99969504 20.75666723 -6.6146705 20.20299424 -8.375 17.5625 C-9.2632883 13.38754497 -9.14731222 9.74489387 -8 5.625 C-5.52665208 2.16231292 -4.17139865 0.86904139 0 0 Z " fill="#6FAD55" transform="translate(196,192.375)"/>
<path d="M0 0 C1.32 0.33 2.64 0.66 4 1 C5.69337741 9.50622283 6.28016921 17.6346933 6.22705078 26.29589844 C6.22734283 27.56561493 6.22763489 28.83533142 6.22793579 30.14352417 C6.22850358 33.5849111 6.21684361 37.02615519 6.20278788 40.46750927 C6.19018354 44.07893819 6.18910244 47.69037132 6.18673706 51.30181885 C6.18055054 58.12256568 6.16417851 64.94324749 6.14403808 71.76396585 C6.12159041 79.53675936 6.11066347 87.30955617 6.10064721 95.0823741 C6.07980937 111.05495357 6.04468914 127.02746836 6 143 C5.67 143 5.34 143 5 143 C4.99668985 142.3495402 4.99337971 141.69908039 4.98996925 141.02890968 C4.90859234 125.1694402 4.81645233 109.31007476 4.71247292 93.45073891 C4.66244532 85.7811442 4.61600165 78.11155966 4.578125 70.44189453 C4.54508548 63.75357372 4.5051891 57.06533413 4.45720994 50.37710321 C4.43206325 46.83886563 4.41024776 43.3006811 4.39665604 39.76237869 C4.38131884 35.80323972 4.3506666 31.84429631 4.31884766 27.88525391 C4.31668747 26.72431213 4.31452728 25.56337036 4.31230164 24.36724854 C4.22627257 15.96154552 3.60286278 7.72042025 0 0 Z " fill="#24B3C5" transform="translate(141,83)"/>
<path d="M0 0 C0.33 0 0.66 0 1 0 C1 12.21 1 24.42 1 37 C2.32 37.33 3.64 37.66 5 38 C-0.94 38 -6.88 38 -13 38 C-11.515 37.505 -11.515 37.505 -10 37 C-10.33 27.43 -10.66 17.86 -11 8 C-11.66 10.64 -12.32 13.28 -13 16 C-13.33 16 -13.66 16 -14 16 C-14.22577402 10.5814234 -13.46670113 6.22512279 -12 1 C-10.68 1.33 -9.36 1.66 -8 2 C-8 13.55 -8 25.1 -8 37 C-5.36 37 -2.72 37 0 37 C0 24.79 0 12.58 0 0 Z " fill="#C55152" transform="translate(216,82)"/>
<path d="M0 0 C2.20914 3.31371 2.22481553 4.3446021 2.125 8.1875 C2.10695312 9.08855469 2.08890625 9.98960937 2.0703125 10.91796875 C2.03550781 11.94857422 2.03550781 11.94857422 2 13 C2.66 13 3.32 13 4 13 C4 14.32 4 15.64 4 17 C3.34 17 2.68 17 2 17 C2.33 18.32 2.66 19.64 3 21 C0.69 21 -1.62 21 -4 21 C-3.67 19.68 -3.34 18.36 -3 17 C-5.97 17 -8.94 17 -12 17 C-11.34 15.68 -10.68 14.36 -10 13 C-7.69 13 -5.38 13 -3 13 C-3.05220703 11.96939453 -3.05220703 11.96939453 -3.10546875 10.91796875 C-3.14607422 9.56638672 -3.14607422 9.56638672 -3.1875 8.1875 C-3.22230469 7.29417969 -3.25710937 6.40085938 -3.29296875 5.48046875 C-2.95081002 2.58352485 -2.24606427 1.77444972 0 0 Z " fill="#7EC65F" transform="translate(200,134)"/>
<path d="M0 0 C5.44736842 0.48421053 5.44736842 0.48421053 7.875 2.75 C9.26158364 5.52316728 9.61113966 6.94430168 9 10 C6.88861266 12.44129161 5.25441197 13.77644143 2.02734375 14.3515625 C-1.25460915 14.48652131 -3.61333431 14.21266613 -6.5 12.625 C-8 11 -8 11 -8 9 C-1.25 6.875 -1.25 6.875 1 8 C0.67 5.36 0.34 2.72 0 0 Z " fill="#172D12" transform="translate(197,173)"/>
<path d="M0 0 C0.515625 0.2475 1.03125 0.495 1.5625 0.75 C0.5725 1.08 -0.4175 1.41 -1.4375 1.75 C-1.55480469 2.35585938 -1.67210938 2.96171875 -1.79296875 3.5859375 C-2.7700191 6.86645806 -4.87631235 7.6469812 -7.75 9.375 C-9.19826172 10.26058594 -9.19826172 10.26058594 -10.67578125 11.1640625 C-17.03660913 14.81681514 -17.03660913 14.81681514 -19.6875 14.375 C-20.265 14.16875 -20.8425 13.9625 -21.4375 13.75 C-21.7675 15.07 -22.0975 16.39 -22.4375 17.75 C-24.0875 18.08 -25.7375 18.41 -27.4375 18.75 C-27.4375 19.41 -27.4375 20.07 -27.4375 20.75 C-28.0975 20.75 -28.7575 20.75 -29.4375 20.75 C-28.7775 18.77 -28.1175 16.79 -27.4375 14.75 C-26.4475 14.75 -25.4575 14.75 -24.4375 14.75 C-24.4375 14.09 -24.4375 13.43 -24.4375 12.75 C-22.1275 12.09 -19.8175 11.43 -17.4375 10.75 C-17.416875 10.151875 -17.39625 9.55375 -17.375 8.9375 C-16.4375 6.75 -16.4375 6.75 -13.3125 5.25 C-12.68472656 5.01796875 -12.05695313 4.7859375 -11.41015625 4.546875 C-9.35635393 3.7172202 -7.62102718 2.67999986 -5.75 1.5 C-2.4375 -0.25 -2.4375 -0.25 0 0 Z " fill="#0FBEDC" transform="translate(113.4375,32.25)"/>
<path d="M0 0 C0.33 0 0.66 0 1 0 C1 10.89 1 21.78 1 33 C0.01 32.67 -0.98 32.34 -2 32 C-2 28.04 -2 24.08 -2 20 C-2.33 21.98 -2.66 23.96 -3 26 C-6.2542015 23.16569547 -7.5206753 21.31392226 -8 17 C-7.01 17 -6.02 17 -5 17 C-4.67 15.35 -4.34 13.7 -4 12 C-3.34 12 -2.68 12 -2 12 C-1.855625 10.7625 -1.71125 9.525 -1.5625 8.25 C-1.21311498 5.43495501 -0.79620634 2.7298503 0 0 Z " fill="#1C0202" transform="translate(205,86)"/>
<path d="M0 0 C2 2 2 2 2 4 C2.66 4 3.32 4 4 4 C3.690625 4.825 3.38125 5.65 3.0625 6.5 C2.21847349 9.28032261 1.81106446 11.4122224 1.5625 14.25 C1.376875 15.4875 1.19125 16.725 1 18 C0.01 18.66 -0.98 19.32 -2 20 C-2.66 20.99 -3.32 21.98 -4 23 C-3.67 20.36 -3.34 17.72 -3 15 C-4.32 15.33 -5.64 15.66 -7 16 C-7.28019819 11.9002581 -6.50617805 9.38186976 -4.625 5.75 C-4.18414062 4.87859375 -3.74328125 4.0071875 -3.2890625 3.109375 C-2 1 -2 1 0 0 Z " fill="#0BC1DF" transform="translate(65,70)"/>
<path d="M0 0 C0.33 0.66 0.66 1.32 1 2 C0.00522247 4.33556463 -0.99515117 6.66875071 -2 9 C-2 10.32 -2 11.64 -2 13 C-0.68 13 0.64 13 2 13 C1.1875 15.4375 1.1875 15.4375 0 18 C-3.13349732 19.04449911 -3.98968256 18.93423645 -7 18 C-7 19.32 -7 20.64 -7 22 C-7.66 22.33 -8.32 22.66 -9 23 C-9.7513123 25.81448632 -10.40772033 28.58946769 -11 31.4375 C-11.32655762 33.00012925 -11.65961064 34.56141906 -12 36.12109375 C-12.144375 36.8164624 -12.28875 37.51183105 -12.4375 38.22827148 C-13 40 -13 40 -15 42 C-14.64651799 31.04205761 -11.04629756 19.73437449 -6 10 C-5.34 10 -4.68 10 -4 10 C-3.79503906 9.36191406 -3.59007812 8.72382812 -3.37890625 8.06640625 C-3.10949219 7.24011719 -2.84007812 6.41382812 -2.5625 5.5625 C-2.16224609 4.32693359 -2.16224609 4.32693359 -1.75390625 3.06640625 C-1 1 -1 1 0 0 Z " fill="#15B5D0" transform="translate(61,72)"/>
<path d="M0 0 C6.76761128 0.94457629 12.8600433 1.93002165 19 5 C19 5.66 19 6.32 19 7 C20.32 7.66 21.64 8.32 23 9 C20.69 9 18.38 9 16 9 C15.67 9.66 15.34 10.32 15 11 C15.99 11.33 16.98 11.66 18 12 C17.67 12.66 17.34 13.32 17 14 C15.49460339 13.05016642 13.99579653 12.08988109 12.5 11.125 C11.6646875 10.59132813 10.829375 10.05765625 9.96875 9.5078125 C9.3190625 9.01023437 8.669375 8.51265625 8 8 C8 7.34 8 6.68 8 6 C6.824375 5.7834375 6.824375 5.7834375 5.625 5.5625 C3 5 3 5 1 4 C0.375 1.9375 0.375 1.9375 0 0 Z " fill="#19B3CD" transform="translate(208,31)"/>
<path d="M0 0 C0.79921875 -0.01224609 1.5984375 -0.02449219 2.421875 -0.03710938 C8.06298951 -0.0508014 13.17494369 0.74704636 18.625 2.1875 C18.625 2.5175 18.625 2.8475 18.625 3.1875 C17.72483154 3.17178955 16.82466309 3.1560791 15.8972168 3.13989258 C-4.22954747 2.83527267 -22.66828826 3.74550682 -42.375 8.1875 C-42.375 7.5275 -42.375 6.8675 -42.375 6.1875 C-34.32176326 3.10663541 -27.4789042 0.99475144 -18.81640625 1.25 C-16.23817373 1.23510897 -16.23817373 1.23510897 -13.17578125 0.69921875 C-8.75287811 0.10374053 -4.45624269 0.0035593 0 0 Z " fill="#001822" transform="translate(164.375,18.8125)"/>
<path d="M0 0 C7.90866255 0.84320299 13.08574883 2.61108346 19 8 C18.01 8.66 17.02 9.32 16 10 C13.3125 9.125 13.3125 9.125 11 8 C10.01 9.32 9.02 10.64 8 12 C2.125 7.375 2.125 7.375 1 4 C0.34 3.67 -0.32 3.34 -1 3 C-0.67 2.01 -0.34 1.02 0 0 Z " fill="#15B3CE" transform="translate(224,39)"/>
<path d="M0 0 C6.69852767 6.69852767 5.33350773 23.39527878 5.375 32.125 C5.34301871 41.74580612 4.57440521 50.71375263 2 60 C1.67 60 1.34 60 1 60 C1 56.7 1 53.4 1 50 C1.66 50 2.32 50 3 50 C2.9056137 45.05584621 2.79934422 40.11213392 2.68261719 35.16845703 C2.64461286 33.49079154 2.60971328 31.81305246 2.578125 30.13525391 C2.42583116 17.92954998 2.42583116 17.92954998 0.41552734 5.92333984 C0 4 0 4 0 0 Z " fill="#24A8BF" transform="translate(281,106)"/>
<path d="M0 0 C0.33 0 0.66 0 1 0 C1 1.65 1 3.3 1 5 C1.598125 4.484375 2.19625 3.96875 2.8125 3.4375 C3.534375 2.963125 4.25625 2.48875 5 2 C5.99 2.33 6.98 2.66 8 3 C2.62907444 8.01037731 -2.64541431 12.30278651 -9 16 C-9.99 15.34 -10.98 14.68 -12 14 C-10.88200014 12.66079162 -9.75538103 11.32877444 -8.625 10 C-7.68527344 8.88625 -7.68527344 8.88625 -6.7265625 7.75 C-6.15679687 7.1725 -5.58703125 6.595 -5 6 C-4.34 6 -3.68 6 -3 6 C-2.67 4.68 -2.34 3.36 -2 2 C-1.34 2 -0.68 2 0 2 C0 1.34 0 0.68 0 0 Z " fill="#1BABC2" transform="translate(94,284)"/>
<path d="M0 0 C0.33 0 0.66 0 1 0 C2.21784411 7.72291386 2.28290648 15.44431247 2.3125 23.25 C2.31578308 23.95610413 2.31906616 24.66220825 2.32244873 25.38970947 C2.34018941 37.20132263 1.52456558 48.65450059 -2 60 C-2.66 60.66 -3.32 61.32 -4 62 C-4.19912319 56.358307 -3.55759902 51.66042182 -2.015625 46.22265625 C0.46980858 36.59464536 0.45692711 27.32022144 0.25 17.4375 C0.22986217 15.73244335 0.21162454 14.02736317 0.1953125 12.32226562 C0.15198942 8.21424352 0.08338588 4.10739605 0 0 Z " fill="#01202B" transform="translate(262,114)"/>
<path d="M0 0 C0.66 0.33 1.32 0.66 2 1 C3.28314037 8.75051232 3.36055667 16.66155951 3.61254883 24.50341797 C3.68780983 26.75928677 3.77841045 29.01423835 3.86914062 31.26953125 C3.91761151 32.71611448 3.96516989 34.16272864 4.01171875 35.609375 C4.05772217 36.90842773 4.10372559 38.20748047 4.15112305 39.54589844 C3.99615066 43.08798128 3.61242044 46.38757956 1 49 C0.46823602 51.57391641 0.03569201 54.15859517 -0.40234375 56.75 C-0.59957031 57.4925 -0.79679687 58.235 -1 59 C-1.99 59.495 -1.99 59.495 -3 60 C-2.61911269 56.26730438 -2.1713221 52.68984483 -1.265625 49.04296875 C2.59655431 33.10237019 1.73831595 16.21080685 0 0 Z " fill="#011F2C" transform="translate(284,114)"/>
<path d="M0 0 C2 1 2 1 2.62109375 2.671875 C3.09148053 5.56208656 3.0943182 8.32272535 3.0625 11.25 C3.05347656 12.32765625 3.04445313 13.4053125 3.03515625 14.515625 C3.02355469 15.33546875 3.01195312 16.1553125 3 17 C3.66 17 4.32 17 5 17 C5.02481344 21.03848316 5.0429136 25.07693647 5.05493164 29.11547852 C5.05994454 30.48788222 5.06675658 31.86028062 5.07543945 33.23266602 C5.08763857 35.21107651 5.09272248 37.1895268 5.09765625 39.16796875 C5.10289307 40.35672607 5.10812988 41.5454834 5.11352539 42.77026367 C5.01239479 45.64737487 4.66550193 48.20673413 4 51 C3.67 51 3.34 51 3 51 C2.98018066 50.13012451 2.96036133 49.26024902 2.93994141 48.36401367 C2.55260295 32.16534824 2.13479051 16.08347024 0 0 Z " fill="#23ABC2" transform="translate(261,103)"/>
<path d="M0 0 C9.9 0 19.8 0 30 0 C30 0.99 30 1.98 30 3 C20.1 3 10.2 3 0 3 C0 2.01 0 1.02 0 0 Z " fill="#2DA8BB" transform="translate(188,67)"/>
<path d="M0 0 C9.9 0 19.8 0 30 0 C30 0.99 30 1.98 30 3 C20.1 3 10.2 3 0 3 C0 2.01 0 1.02 0 0 Z " fill="#CD5757" transform="translate(100,67)"/>
<path d="M0 0 C4.875 0.875 4.875 0.875 6 2 C6.33 1.34 6.66 0.68 7 0 C8.98 0 10.96 0 13 0 C11.68 0.33 10.36 0.66 9 1 C9 1.66 9 2.32 9 3 C9.99 3.33 10.98 3.66 12 4 C11.01 4 10.02 4 9 4 C9 4.99 9 5.98 9 7 C10.32 7.33 11.64 7.66 13 8 C2.98434247 9.61472474 2.98434247 9.61472474 -1 7 C-1.9375 5.0625 -1.9375 5.0625 -2 3 C-1.34 2.01 -0.68 1.02 0 0 Z " fill="#7A6D4A" transform="translate(236,255)"/>
<path d="M0 0 C-0.33 1.32 -0.66 2.64 -1 4 C0.32 3.34 1.64 2.68 3 2 C3.66 2.66 4.32 3.32 5 4 C2.48283718 4.84610515 -0.03779273 5.67696767 -2.5625 6.5 C-3.26697266 6.73847656 -3.97144531 6.97695312 -4.69726562 7.22265625 C-9.32122977 8.71425759 -13.14302111 9.25529455 -18 9 C-18 8.34 -18 7.68 -18 7 C-18.66 6.67 -19.32 6.34 -20 6 C-18.95199219 5.73445312 -17.90398437 5.46890625 -16.82421875 5.1953125 C-15.4452352 4.83884056 -14.06633316 4.48205321 -12.6875 4.125 C-11.65206055 3.86396484 -11.65206055 3.86396484 -10.59570312 3.59765625 C-7.02068099 2.66504178 -3.45270933 0 0 0 Z " fill="#1BA5BA" transform="translate(218,232)"/>
<path d="M0 0 C0.66 0 1.32 0 2 0 C1.90912109 0.5669458 1.81824219 1.1338916 1.72460938 1.71801758 C-0.98799367 19.00042888 -1.94767159 35.57529528 0 53 C-2.5654594 50.4345406 -2.54046087 48.52313332 -3 45 C-3.33 45 -3.66 45 -4 45 C-4.25308151 35.97342625 -3.87472314 27.11799312 -3.0625 18.125 C-2.97564941 17.1438623 -2.88879883 16.16272461 -2.79931641 15.15185547 C-2.12938977 8.12938977 -2.12938977 8.12938977 -1 7 C-0.63239269 4.67182036 -0.29758419 2.3381615 0 0 Z " fill="#1EB2C9" transform="translate(60,100)"/>
<path d="M0 0 C4.19161906 0 7.88857686 0.13443723 12 1 C12 4 12 4 11 8 C7.37 8 3.74 8 0 8 C0 5.36 0 2.72 0 0 Z " fill="#786542" transform="translate(160,255)"/>
<path d="M0 0 C0.66 0 1.32 0 2 0 C2 12.54 2 25.08 2 38 C-0.97 38.495 -0.97 38.495 -4 39 C-4 38.34 -4 37.68 -4 37 C-2.02 36.505 -2.02 36.505 0 36 C0 24.12 0 12.24 0 0 Z " fill="#351010" transform="translate(177,81)"/>
<path d="M0 0 C3.96 0 7.92 0 12 0 C12 2.64 12 5.28 12 8 C11.34 7.67 10.68 7.34 10 7 C10 6.34 10 5.68 10 5 C9.34 5 8.68 5 8 5 C8 5.99 8 6.98 8 8 C5.36 8 2.72 8 0 8 C0 5.36 0 2.72 0 0 Z " fill="#796943" transform="translate(208,255)"/>
<path d="M0 0 C9.24 0 18.48 0 28 0 C28 0.99 28 1.98 28 3 C19.09 3 10.18 3 1 3 C0.67 2.01 0.34 1.02 0 0 Z " fill="#E6CF72" transform="translate(160,67)"/>
<path d="M0 0 C0.99 1.485 0.99 1.485 2 3 C1.34 3 0.68 3 0 3 C0 2.01 0 1.02 0 0 Z M2 4 C2 6.97 2 9.94 2 13 C1.01 13 0.02 13 -1 13 C-1 11.68 -1 10.36 -1 9 C-1.99 9.495 -1.99 9.495 -3 10 C-3.33 10.99 -3.66 11.98 -4 13 C-4.99 13 -5.98 13 -7 13 C-8.25664978 10.09399739 -9 8.20395416 -9 5 C-1.375 2.875 -1.375 2.875 2 4 Z " fill="#483B20" transform="translate(231,250)"/>
<path d="M0 0 C0.99 0.33 1.98 0.66 3 1 C3 13.21 3 25.42 3 38 C2.01 38 1.02 38 0 38 C0 25.46 0 12.92 0 0 Z " fill="#3F0E0E" transform="translate(217,81)"/>
<path d="M0 0 C1.28613129 3.85839387 1.46346074 7.97810345 1 12 C0.67378662 12.54430664 0.34757324 13.08861328 0.01147461 13.64941406 C-1.39702173 16.92264668 -1.35629039 20.1024516 -1.4140625 23.609375 C-1.43342865 24.33618469 -1.4527948 25.06299438 -1.4727478 25.81182861 C-1.53234271 28.12443448 -1.57884758 30.43709067 -1.625 32.75 C-1.66319836 34.32163582 -1.70225117 35.89325113 -1.7421875 37.46484375 C-1.83802743 41.30972842 -1.92213195 45.15471107 -2 49 C-2.33 49 -2.66 49 -3 49 C-5.23990762 33.04969007 -5.13859187 15.41577562 0 0 Z " fill="#02323C" transform="translate(62,100)"/>
<path d="M0 0 C1.63102378 3.26204757 2.70958612 6.02721316 3.6875 9.5 C3.95949219 10.4384375 4.23148438 11.376875 4.51171875 12.34375 C5.00140894 15.00766466 4.88693174 16.47611372 4 19 C4 18.01 4 17.02 4 16 C3.34 16 2.68 16 2 16 C1.67 22.27 1.34 28.54 1 35 C1.66 35.33 2.32 35.66 3 36 C2.01 36 1.02 36 0 36 C0 24.12 0 12.24 0 0 Z " fill="#480606" transform="translate(180,83)"/>
<path d="M0 0 C0.33 0 0.66 0 1 0 C1 1.65 1 3.3 1 5 C0.01 5 -0.98 5 -2 5 C-2.66 6.98 -3.32 8.96 -4 11 C-4.66 11 -5.32 11 -6 11 C-6 12.32 -6 13.64 -6 15 C-10.07142857 18 -10.07142857 18 -13 18 C-13 18.66 -13 19.32 -13 20 C-13.99 20.33 -14.98 20.66 -16 21 C-15.67 21.66 -15.34 22.32 -15 23 C-19.455 24.485 -19.455 24.485 -24 26 C-20.40020956 22.28771611 -16.61652481 18.89483588 -12.671875 15.55078125 C-10.89673637 14.08649533 -10.89673637 14.08649533 -10 12 C-9.34 12 -8.68 12 -8 12 C-8 11.34 -8 10.68 -8 10 C-7.34 10 -6.68 10 -6 10 C-5.7525 9.46375 -5.505 8.9275 -5.25 8.375 C-3.69915043 5.42838581 -1.91694442 2.72082434 0 0 Z " fill="#1A9BB3" transform="translate(246,204)"/>
<path d="M0 0 C0.66 0 1.32 0 2 0 C1.01 3.96 0.02 7.92 -1 12 C-1.99 12 -2.98 12 -4 12 C-4.33 11.34 -4.66 10.68 -5 10 C-6.32 10 -7.64 10 -9 10 C-8.64598897 6.81390075 -8.16972964 5.20933322 -6.125 2.6875 C-4 1 -4 1 -1 1 C-0.67 0.67 -0.34 0.34 0 0 Z " fill="#0CBFDA" transform="translate(64,88)"/>
<path d="M0 0 C11.55 0 23.1 0 35 0 C35 0.66 35 1.32 35 2 C34.38125 2.5775 33.7625 3.155 33.125 3.75 C30.65892567 6.36113753 29.93542439 8.57011055 29 12 C28.67 12 28.34 12 28 12 C28 8.7 28 5.4 28 2 C19.75 1.67 11.5 1.34 3 1 C2.67 1.66 2.34 2.32 2 3 C1.34 2.01 0.68 1.02 0 0 Z " fill="#22B8D1" transform="translate(138,80)"/>
<path d="M0 0 C1.32 0.66 2.64 1.32 4 2 C4.10841951 3.91541138 4.18578079 5.83259773 4.25 7.75 C4.29640625 8.81734375 4.3428125 9.8846875 4.390625 10.984375 C4 14 4 14 2.109375 16.390625 C0 18 0 18 -2 18 C-1.84660156 17.48953125 -1.69320312 16.9790625 -1.53515625 16.453125 C-0.83094597 13.2250662 -0.65111796 10.04581999 -0.4375 6.75 C-0.35371094 5.48671875 -0.26992187 4.2234375 -0.18359375 2.921875 C-0.12300781 1.95765625 -0.06242188 0.9934375 0 0 Z " fill="#7FC067" transform="translate(200,196)"/>
<path d="M0 0 C3.3 0 6.6 0 10 0 C10 3.63 10 7.26 10 11 C8.35 11.33 6.7 11.66 5 12 C5.99 9.03 6.98 6.06 8 3 C7.34 3 6.68 3 6 3 C5.67 4.32 5.34 5.64 5 7 C4.67 5.68 4.34 4.36 4 3 C2.68 3 1.36 3 0 3 C0 2.01 0 1.02 0 0 Z " fill="#120904" transform="translate(157,263)"/>
<path d="M0 0 C0.33 0.66 0.66 1.32 1 2 C1.928125 1.649375 2.85625 1.29875 3.8125 0.9375 C7 0 7 0 10 1 C8.11076602 2.01241247 6.21330056 3.00947425 4.3125 4 C2.72888672 4.8353125 2.72888672 4.8353125 1.11328125 5.6875 C-1.97539637 6.98962758 -3.71918625 7.17885186 -7 7 C-7.99 7.33 -8.98 7.66 -10 8 C-9.67 6.35 -9.34 4.7 -9 3 C-6.03 2.01 -3.06 1.02 0 0 Z " fill="#1AB8D1" transform="translate(227,228)"/>
<path d="M0 0 C2 2 2 2 2.125 5.625 C2.08375 6.73875 2.0425 7.8525 2 9 C-0.64738916 10.4606285 -1.89448334 11 -5 11 C-5 8.03 -5 5.06 -5 2 C-5.66 1.67 -6.32 1.34 -7 1 C-3.625 0.375 -3.625 0.375 0 0 Z " fill="#211407" transform="translate(145,265)"/>
<path d="M0 0 C1.30470605 3.66018209 0.68104523 6.17392628 -0.3125 9.875 C-0.59351563 10.92945313 -0.87453125 11.98390625 -1.1640625 13.0703125 C-2.02293351 16.08037446 -2.93666728 19.05538632 -4 22 C-4.99 22 -5.98 22 -7 22 C-7.33 22.66 -7.66 23.32 -8 24 C-8.66 24 -9.32 24 -10 24 C-8.05148112 18.96944887 -5.74020212 14.12987799 -3.4375 9.25390625 C-2.0916949 6.20755938 -0.99624575 3.17553334 0 0 Z " fill="#1BABC3" transform="translate(257,180)"/>
<path d="M0 0 C5.875 0.875 5.875 0.875 7 2 C7.4375 4.8125 7.4375 4.8125 7 8 C4.03744762 10.61806955 2.08965379 11.9052475 -1.875 12.25 C-2.57625 12.1675 -3.2775 12.085 -4 12 C-0.25 9 -0.25 9 2 9 C2 6.69 2 4.38 2 2 C1.34 2 0.68 2 0 2 C0 1.34 0 0.68 0 0 Z " fill="#7CBA5F" transform="translate(197,173)"/>
<path d="M0 0 C2.29633824 3.44450737 2.54016485 5.93812283 3 10 C3.66 10 4.32 10 5 10 C6.14051606 14.98283716 7.22225866 19.94468132 8 25 C8.66 25 9.32 25 10 25 C10.33 26.32 10.66 27.64 11 29 C10.34 29.33 9.68 29.66 9 30 C5.54139719 24.10336569 3.32025873 18.22820106 1.6875 11.625 C1.43081543 10.59052734 1.43081543 10.59052734 1.16894531 9.53515625 C0.39160307 6.23185576 0 3.41678542 0 0 Z " fill="#021C24" transform="translate(60,150)"/>
<path d="M0 0 C0.33 0 0.66 0 1 0 C1 4.29 1 8.58 1 13 C-0.98 13.66 -2.96 14.32 -5 15 C-4.88637738 13.5199159 -4.75877092 12.04089926 -4.625 10.5625 C-4.55539063 9.73878906 -4.48578125 8.91507813 -4.4140625 8.06640625 C-4.20910156 7.04353516 -4.20910156 7.04353516 -4 6 C-3.34 5.67 -2.68 5.34 -2 5 C-1.27840576 3.35636866 -0.60648579 1.68949614 0 0 Z " fill="#140404" transform="translate(203,105)"/>
<path d="M0 0 C0.33 0 0.66 0 1 0 C1.63166832 11.00155653 1.63166832 11.00155653 -0.9375 15.0625 C-1.9584375 16.0215625 -1.9584375 16.0215625 -3 17 C-3.33 17.99 -3.66 18.98 -4 20 C-4.66 20 -5.32 20 -6 20 C-6.33 20.66 -6.66 21.32 -7 22 C-7.33 20.35 -7.66 18.7 -8 17 C-7.01 17 -6.02 17 -5 17 C-4.67 15.35 -4.34 13.7 -4 12 C-3.34 12 -2.68 12 -2 12 C-1.855625 10.7625 -1.71125 9.525 -1.5625 8.25 C-1.21311498 5.43495501 -0.79620634 2.7298503 0 0 Z " fill="#350505" transform="translate(205,86)"/>
<path d="M0 0 C11.88 0 23.76 0 36 0 C34.68 1.32 33.36 2.64 32 4 C32 3.01 32 2.02 32 1 C22.76 1.33 13.52 1.66 4 2 C4 2.66 4 3.32 4 4 C4.66 4.33 5.32 4.66 6 5 C3 5 3 5 1.3125 3.625 C0 2 0 2 0 0 Z " fill="#27BDD7" transform="translate(100,80)"/>
<path d="M0 0 C0.33 0 0.66 0 1 0 C1.33 9.9 1.66 19.8 2 30 C2.66 30 3.32 30 4 30 C4.33 33.96 4.66 37.92 5 42 C-0.98947284 36.01052716 -0.17017569 22.23872663 -0.20654297 14.29541016 C-0.1790005 9.52915132 -0.11637788 4.76492828 0 0 Z " fill="#1D96AD" transform="translate(45,114)"/>
<path d="M0 0 C2.56588452 2.56588452 2.3554254 3.74466869 2.4375 7.3125 C2.34818003 11.30562797 2.11769632 12.80506547 0 16.3125 C-3.30912996 18.1738856 -3.81836498 18.15655393 -7.3125 17.3125 C-9.1378125 16.6628125 -9.1378125 16.6628125 -11 16 C-10.34 15.34 -9.68 14.68 -9 14 C-8.195625 14.020625 -7.39125 14.04125 -6.5625 14.0625 C-4.01783403 14.23929445 -4.01783403 14.23929445 -2.3828125 12.8515625 C-0.50810915 10.34136649 -0.49502619 8.41544516 -0.3125 5.3125 C-0.24675781 4.31863281 -0.18101562 3.32476562 -0.11328125 2.30078125 C-0.07589844 1.54152344 -0.03851563 0.78226563 0 0 Z " fill="#395E2A" transform="translate(204,199)"/>
<path d="M0 0 C3.03939206 1.97560484 3.06159932 2.81422425 3.8125 6.25 C4.06262996 7.70488435 4.29839367 9.16260185 4.5 10.625 C3.51 10.625 2.52 10.625 1.5 10.625 C1.2525 9.820625 1.005 9.01625 0.75 8.1875 C-0.22238859 5.453919 -0.22238859 5.453919 -2.625 4.8125 C-3.24375 4.750625 -3.8625 4.68875 -4.5 4.625 C-4.5 3.305 -4.5 1.985 -4.5 0.625 C-2.5 -0.375 -2.5 -0.375 0 0 Z " fill="#0EBEDA" transform="translate(71.5,185.375)"/>
<path d="M0 0 C-0.33 0.66 -0.66 1.32 -1 2 C-0.34 2 0.32 2 1 2 C1 2.66 1 3.32 1 4 C-2 6 -2 6 -5 6 C-5 5.34 -5 4.68 -5 4 C-4.34 3.67 -3.68 3.34 -3 3 C-7.55677517 3.42719767 -10.41353578 5.4429702 -14.03515625 8.0390625 C-16 9 -16 9 -18.24609375 8.6484375 C-18.82488281 8.43445312 -19.40367188 8.22046875 -20 8 C-13.375 4 -13.375 4 -10 4 C-10 3.34 -10 2.68 -10 2 C-8.71211992 1.46987262 -7.41953322 0.9511671 -6.125 0.4375 C-5.40570313 0.14746094 -4.68640625 -0.14257812 -3.9453125 -0.44140625 C-2 -1 -2 -1 0 0 Z " fill="#1C9EB7" transform="translate(117,30)"/>
<path d="M0 0 C4.70588235 0.70588235 4.70588235 0.70588235 6 2 C6.125 4.5 6.125 4.5 6 7 C5 8 5 8 2.5 8.125 C0 8 0 8 -1 7 C-1.125 4 -1.125 4 -1 1 C-0.67 0.67 -0.34 0.34 0 0 Z " fill="#887446" transform="translate(147,266)"/>
<path d="M0 0 C2.375 -0.125 2.375 -0.125 5 0 C5.66 0.66 6.32 1.32 7 2 C6.44444444 6.55555556 6.44444444 6.55555556 5 8 C3.33382885 8.04063832 1.66611905 8.042721 0 8 C0 5.36 0 2.72 0 0 Z " fill="#8F7F50" transform="translate(151,255)"/>
<path d="M0 0 C0.66 0.33 1.32 0.66 2 1 C2 2.32 2 3.64 2 5 C0.3203125 6.484375 0.3203125 6.484375 -1.875 7.75 C-2.95394531 8.39195313 -2.95394531 8.39195313 -4.0546875 9.046875 C-6 10 -6 10 -8 10 C-8.33 8.35 -8.66 6.7 -9 5 C-7.68 5 -6.36 5 -5 5 C-4.67 4.01 -4.34 3.02 -4 2 C-2.0625 0.75 -2.0625 0.75 0 0 Z " fill="#0EC0E1" transform="translate(80,55)"/>
<path d="M0 0 C2.20914 3.31371 2.22481553 4.3446021 2.125 8.1875 C2.10695312 9.08855469 2.08890625 9.98960937 2.0703125 10.91796875 C2.03550781 11.94857422 2.03550781 11.94857422 2 13 C0.68 12.34 -0.64 11.68 -2 11 C-2.33 11.66 -2.66 12.32 -3 13 C-3.08121924 11.39667209 -3.13929134 9.79215974 -3.1875 8.1875 C-3.22230469 7.29417969 -3.25710937 6.40085938 -3.29296875 5.48046875 C-2.95081002 2.58352485 -2.24606427 1.77444972 0 0 Z " fill="#7ABD5C" transform="translate(200,134)"/>
<path d="M0 0 C0.33 0 0.66 0 1 0 C1 2.64 1 5.28 1 8 C0.01 8.495 0.01 8.495 -1 9 C-1.7513123 11.81448632 -2.40772033 14.58946769 -3 17.4375 C-3.32655762 19.00012925 -3.65961064 20.56141906 -4 22.12109375 C-4.144375 22.8164624 -4.28875 23.51183105 -4.4375 24.22827148 C-5 26 -5 26 -7 28 C-6.67920889 18.05547545 -3.30592547 9.280855 0 0 Z " fill="#24A3B6" transform="translate(53,86)"/>
<path d="M0 0 C2.66793335 2.66793335 3.36340808 5.32631161 4.625 8.875 C5.07101562 10.10992187 5.51703125 11.34484375 5.9765625 12.6171875 C7 16 7 16 7 20 C6.34 20 5.68 20 5 20 C5 18.68 5 17.36 5 16 C4.34 16 3.68 16 3 16 C0.54970669 10.28264895 -0.33266291 6.20970773 0 0 Z " fill="#021C26" transform="translate(253,82)"/>
<path d="M0 0 C2 2 2 2 2.125 4.625 C2.08375 5.40875 2.0425 6.1925 2 7 C1.01 7.33 0.02 7.66 -1 8 C-1 6.68 -1 5.36 -1 4 C-5.65052872 3.73067479 -5.65052872 3.73067479 -10 5 C-8.23291246 -0.30126261 -5.07211618 -0.43166946 0 0 Z " fill="#73AE57" transform="translate(200,163)"/>
<path d="M0 0 C-0.33 0.99 -0.66 1.98 -1 3 C-2.99609375 3.984375 -2.99609375 3.984375 -5.4375 4.75 C-6.24058594 5.01296875 -7.04367188 5.2759375 -7.87109375 5.546875 C-10 6 -10 6 -12 5 C-11.67 3.68 -11.34 2.36 -11 1 C-7.32589215 -0.17571451 -3.83070817 -0.07366746 0 0 Z " fill="#1CACC5" transform="translate(128,27)"/>
<path d="M0 0 C1.37913361 3.83092668 0.78648334 7.0675833 0 11 C-0.99 12.485 -0.99 12.485 -2 14 C-2.66 14 -3.32 14 -4 14 C-4 15.32 -4 16.64 -4 18 C-4.66 18 -5.32 18 -6 18 C-6 18.66 -6 19.32 -6 20 C-6.66 20 -7.32 20 -8 20 C-6.49543717 14.93919776 -4.34611982 10.26185349 -2.12109375 5.48828125 C-0.92733942 2.95099444 -0.92733942 2.95099444 0 0 Z " fill="#022632" transform="translate(122,253)"/>
<path d="M0 0 C1.61999217 3.23998435 0.07843821 5.91244395 -0.96484375 9.24609375 C-2.53543995 13.42447232 -4.67706222 17.19882909 -7 21 C-7.33 20.01 -7.66 19.02 -8 18 C-7.54625 17.113125 -7.0925 16.22625 -6.625 15.3125 C-5.16594021 12.33826274 -4.79077164 11.01812493 -4.5625 7.875 C-3.95583166 3.69572924 -3.26591959 2.52845388 0 0 Z " fill="#20AFC8" transform="translate(281,168)"/>
<path d="M0 0 C1.90608098 3.21182149 2.22266247 5.53882603 2.125 9.25 C2.10695312 10.14203125 2.08890625 11.0340625 2.0703125 11.953125 C2.03550781 12.96632812 2.03550781 12.96632812 2 14 C2.66 14 3.32 14 4 14 C4.33 16.31 4.66 18.62 5 21 C4.34 21 3.68 21 3 21 C3 22.32 3 23.64 3 25 C1.35 25 -0.3 25 -2 25 C-2 24.34 -2 23.68 -2 23 C-1.01 22.67 -0.02 22.34 1 22 C1 21.01 1 20.02 1 19 C1.66 19 2.32 19 3 19 C3 17.68 3 16.36 3 15 C2.34 15 1.68 15 1 15 C0.63911385 12.68853911 0.28645809 10.37579171 -0.0625 8.0625 C-0.25972656 6.77472656 -0.45695313 5.48695313 -0.66015625 4.16015625 C-0.82837891 2.59587891 -0.82837891 2.59587891 -1 1 C-0.67 0.67 -0.34 0.34 0 0 Z " fill="#3F682E" transform="translate(201,132)"/>
<path d="M0 0 C0.99 0 1.98 0 3 0 C1.05586521 7.28655398 -1.35421785 14.37021134 -5 21 C-5.66 21.33 -6.32 21.66 -7 22 C-7 21.01 -7 20.02 -7 19 C-6.34 19 -5.68 19 -5 19 C-4.896875 18.21625 -4.79375 17.4325 -4.6875 16.625 C-3.60986773 10.94293892 -1.82711499 5.48134498 0 0 Z " fill="#001B2A" transform="translate(255,178)"/>
<path d="M0 0 C0.66 0 1.32 0 2 0 C1.84660156 1.22589844 1.69320312 2.45179687 1.53515625 3.71484375 C0.87540939 9.65256546 0.65692263 15.59492399 0.4375 21.5625 C0.39431641 22.66658203 0.35113281 23.77066406 0.30664062 24.90820312 C0.20155613 27.60537185 0.09940587 30.30261703 0 33 C-0.33 33 -0.66 33 -1 33 C-1.02477373 28.94320623 -1.04289493 24.88644194 -1.05493164 20.82958984 C-1.05995118 19.45035027 -1.06676819 18.07111598 -1.07543945 16.69189453 C-1.0876092 14.70607817 -1.09271633 12.72022251 -1.09765625 10.734375 C-1.10289307 9.54038086 -1.10812988 8.34638672 -1.11352539 7.11621094 C-1.01941946 4.53305383 -0.76626155 2.44991581 0 0 Z " fill="#000F18" transform="translate(45,105)"/>
<path d="M0 0 C0.556875 0.226875 1.11375 0.45375 1.6875 0.6875 C0.6975 1.0175 -0.2925 1.3475 -1.3125 1.6875 C-1.44527344 2.31140625 -1.57804687 2.9353125 -1.71484375 3.578125 C-2.3125 5.6875 -2.3125 5.6875 -4.37890625 7.171875 C-5.20261719 7.58953125 -6.02632813 8.0071875 -6.875 8.4375 C-8.11443359 9.07945313 -8.11443359 9.07945313 -9.37890625 9.734375 C-10.01699219 10.04890625 -10.65507813 10.3634375 -11.3125 10.6875 C-11.3125 9.6975 -11.3125 8.7075 -11.3125 7.6875 C-10.3225 7.3575 -9.3325 7.0275 -8.3125 6.6875 C-8.126875 5.759375 -8.126875 5.759375 -7.9375 4.8125 C-7.3125 2.6875 -7.3125 2.6875 -5 0.875 C-2.3125 -0.3125 -2.3125 -0.3125 0 0 Z " fill="#17B6D0" transform="translate(113.3125,32.3125)"/>
<path d="M0 0 C1.485 0.99 1.485 0.99 3 2 C3.33 1.34 3.66 0.68 4 0 C4.66 0 5.32 0 6 0 C6.33 0.99 6.66 1.98 7 3 C7.33 2.01 7.66 1.02 8 0 C8.66 0 9.32 0 10 0 C9.34 2.64 8.68 5.28 8 8 C7.34 8 6.68 8 6 8 C5.67 7.01 5.34 6.02 5 5 C4.67 5.99 4.34 6.98 4 8 C3.34 8 2.68 8 2 8 C0.74335022 5.09399739 0 3.20395416 0 0 Z " fill="#C8B269" transform="translate(155,266)"/>
<path d="M0 0 C0 3.66184524 -0.919642 5.02806 -3 8 C-5.6289281 10.38246609 -6.38834178 11 -10 11 C-10.33 11.99 -10.66 12.98 -11 14 C-12.65 14.33 -14.3 14.66 -16 15 C-14.37660195 13.29115995 -12.70680947 11.62553283 -11 10 C-10.34 10 -9.68 10 -9 10 C-9 9.34 -9 8.68 -9 8 C-7.28515625 6.30859375 -7.28515625 6.30859375 -5.0625 4.4375 C-4.33160156 3.81746094 -3.60070312 3.19742188 -2.84765625 2.55859375 C-1.93306641 1.78708984 -1.93306641 1.78708984 -1 1 C-0.67 0.67 -0.34 0.34 0 0 Z " fill="#022B34" transform="translate(258,211)"/>
<path d="M0 0 C0 3.66842255 -0.79029126 5.10451959 -3 8 C-5.5 8.625 -5.5 8.625 -8 9 C-8.515625 9.53625 -9.03125 10.0725 -9.5625 10.625 C-10.036875 11.07875 -10.51125 11.5325 -11 12 C-13.08984375 11.5859375 -13.08984375 11.5859375 -15 11 C-14.41992188 10.62488281 -13.83984375 10.24976563 -13.2421875 9.86328125 C-8.57747188 6.80735369 -4.20354396 3.66462807 0 0 Z " fill="#02212B" transform="translate(100,288)"/>
<path d="M0 0 C1 2 1 2 0.0625 5.25 C-2.0080594 9.90875864 -5.8315462 12.29694089 -10 15 C-10.66 14.67 -11.32 14.34 -12 14 C-11.46890625 13.40832031 -10.9378125 12.81664062 -10.390625 12.20703125 C-6.82185937 8.21496312 -3.27989772 4.23653455 0 0 Z " fill="#001923" transform="translate(113,273)"/>
<path d="M0 0 C0.99 0 1.98 0 3 0 C3.33 0.99 3.66 1.98 4 3 C4.33 2.01 4.66 1.02 5 0 C5.66 0 6.32 0 7 0 C7 2.64 7 5.28 7 8 C6.01 7.67 5.02 7.34 4 7 C3.67 6.34 3.34 5.68 3 5 C2.67 5.99 2.34 6.98 2 8 C1.34 8 0.68 8 0 8 C0 5.36 0 2.72 0 0 Z " fill="#B7A365" transform="translate(187,255)"/>
<path d="M0 0 C2.97 0.33 5.94 0.66 9 1 C9.33 1.99 9.66 2.98 10 4 C10.66 4 11.32 4 12 4 C12 4.66 12 5.32 12 6 C10.54119891 5.85892253 9.08296449 5.71197585 7.625 5.5625 C6.40683594 5.44068359 6.40683594 5.44068359 5.1640625 5.31640625 C3 5 3 5 1 4 C0.67 2.68 0.34 1.36 0 0 Z " fill="#19B2CC" transform="translate(208,31)"/>
<path d="M0 0 C0.66 0 1.32 0 2 0 C2.433125 1.2065625 2.433125 1.2065625 2.875 2.4375 C3.73262568 5.1326468 3.73262568 5.1326468 6 6 C5.67 8.97 5.34 11.94 5 15 C2.52813545 12.03653214 1.33751639 9.45958311 0.3125 5.75 C0.06113281 4.85796875 -0.19023437 3.9659375 -0.44921875 3.046875 C-0.63097656 2.37140625 -0.81273437 1.6959375 -1 1 C-0.67 0.67 -0.34 0.34 0 0 Z " fill="#17AFC7" transform="translate(253,77)"/>
<path d="M0 0 C0.66 0.33 1.32 0.66 2 1 C1.67 2.32 1.34 3.64 1 5 C-1.31 5.33 -3.62 5.66 -6 6 C-6 6.66 -6 7.32 -6 8 C-7.98 8.66 -9.96 9.32 -12 10 C-8.29909479 6.0747975 -4.45040344 3.05419844 0 0 Z " fill="#1CA9C0" transform="translate(95,39)"/>
<path d="M0 0 C2.31 0.33 4.62 0.66 7 1 C7.66 2.98 8.32 4.96 9 7 C2.47692308 6.38461538 2.47692308 6.38461538 0.0625 4.4375 C-0.288125 3.963125 -0.63875 3.48875 -1 3 C-0.67 2.01 -0.34 1.02 0 0 Z " fill="#0CC1E2" transform="translate(224,39)"/>
<path d="M0 0 C4.20626034 1.50223584 5.73900021 4.28550034 8 8 C6.8553125 8.2165625 6.8553125 8.2165625 5.6875 8.4375 C2.91827092 8.9632594 2.91827092 8.9632594 0 10 C0 9.34 0 8.68 0 8 C-0.66 7.67 -1.32 7.34 -2 7 C-1.01 6.67 -0.02 6.34 1 6 C0.67 4.02 0.34 2.04 0 0 Z " fill="#18B3CD" transform="translate(249,54)"/>
<path d="M0 0 C0.66 0 1.32 0 2 0 C1.08169899 7.11683282 -2.76758955 13.69679962 -6 20 C-7.18044436 16.45866692 -6.82021319 16.0268857 -5.25 12.8125 C-3.26304134 8.60401116 -1.59023709 4.37315199 0 0 Z " fill="#24B0C5" transform="translate(120,253)"/>
<path d="M0 0 C1.65 0 3.3 0 5 0 C5.33 0.99 5.66 1.98 6 3 C4.35 2.67 2.7 2.34 1 2 C1 3.32 1 4.64 1 6 C1.66 5.34 2.32 4.68 3 4 C3.99 4 4.98 4 6 4 C5.67 5.32 5.34 6.64 5 8 C3.35 8 1.7 8 0 8 C-1.125 2.25 -1.125 2.25 0 0 Z " fill="#AD9D6C" transform="translate(179,255)"/>
<path d="M0 0 C3 3.625 3 3.625 3 7 C3.66 7 4.32 7 5 7 C6.59138085 11.17737474 7.21278058 14.53160785 7 19 C4.55160412 15.32740617 3 12.45351799 3 8 C2.34 8 1.68 8 1 8 C0.26919734 6.02253397 -0.39421747 4.01927511 -1 2 C-0.67 1.34 -0.34 0.68 0 0 Z " fill="#032631" transform="translate(272,78)"/>
<path d="M0 0 C2 2 2 2 2.1953125 3.9453125 C2.13020833 5.96354167 2.06510417 7.98177083 2 10 C2.66 10.33 3.32 10.66 4 11 C2.35 10.67 0.7 10.34 -1 10 C-0.67 8.68 -0.34 7.36 0 6 C-0.66 6.66 -1.32 7.32 -2 8 C-2.99 8 -3.98 8 -5 8 C-5 6.68 -5 5.36 -5 4 C-2.525 4.495 -2.525 4.495 0 5 C-0.33 4.01 -0.66 3.02 -1 2 C-0.67 1.34 -0.34 0.68 0 0 Z " fill="#231406" transform="translate(185,253)"/>
<path d="M0 0 C0.33 0 0.66 0 1 0 C1.38678091 16.30926153 1.38678091 16.30926153 -1 24 C-1.66 24.33 -2.32 24.66 -3 25 C-2.85831863 23.56208484 -2.71148957 22.1246763 -2.5625 20.6875 C-2.48128906 19.88699219 -2.40007812 19.08648437 -2.31640625 18.26171875 C-2 16 -2 16 -1 13 C-0.77548542 10.77425665 -0.59217122 8.54418481 -0.4375 6.3125 C-0.35371094 5.13300781 -0.26992187 3.95351562 -0.18359375 2.73828125 C-0.12300781 1.83464844 -0.06242187 0.93101562 0 0 Z " fill="#02222C" transform="translate(128,221)"/>
<path d="M0 0 C0.99 0.33 1.98 0.66 3 1 C2 3.9375 2 3.9375 0 7 C-2.75878925 7.86518243 -5.06992426 7.90393194 -8 8 C-7.34 6.68 -6.68 5.36 -6 4 C-5.34 4 -4.68 4 -4 4 C-2.62689293 2.70766393 -1.28965176 1.37562854 0 0 Z " fill="#13BBD8" transform="translate(74,67)"/>
<path d="M0 0 C0.99 0.33 1.98 0.66 3 1 C2.34 6.28 1.68 11.56 1 17 C-1 15 -1 15 -1.23046875 12.28515625 C-1.21628906 11.22167969 -1.20210937 10.15820312 -1.1875 9.0625 C-1.18105469 8.00160156 -1.17460937 6.94070312 -1.16796875 5.84765625 C-1 3 -1 3 0 0 Z " fill="#386625" transform="translate(193,195)"/>
<path d="M0 0 C0.66 0 1.32 0 2 0 C4.27678571 8.03571429 4.27678571 8.03571429 3 12 C3 11.01 3 10.02 3 9 C2.34 9 1.68 9 1 9 C1 11.31 1 13.62 1 16 C0.67 16 0.34 16 0 16 C0 10.72 0 5.44 0 0 Z " fill="#2F0807" transform="translate(181,90)"/>
<path d="M0 0 C4.71403788 0.47939368 8.66579301 0.96834048 13 3 C13 3.33 13 3.66 13 4 C10.69 4 8.38 4 6 4 C6 4.66 6 5.32 6 6 C4.125 5.8125 4.125 5.8125 2 5 C0.75 2.4375 0.75 2.4375 0 0 Z " fill="#1DABC5" transform="translate(203,28)"/>
<path d="M0 0 C1.19855649 3.56980135 0.87966224 6.43163949 0.3125 10.125 C0.16425781 11.17945313 0.01601562 12.23390625 -0.13671875 13.3203125 C-1 16 -1 16 -3.08203125 17.3671875 C-4.03142578 17.68042969 -4.03142578 17.68042969 -5 18 C-4.35702496 15.37426939 -3.71075589 12.74942697 -3.0625 10.125 C-2.88009766 9.37863281 -2.69769531 8.63226563 -2.50976562 7.86328125 C-1.11328125 2.2265625 -1.11328125 2.2265625 0 0 Z " fill="#1EA5B7" transform="translate(104,258)"/>
<path d="M0 0 C3 1 3 1 4 3 C4.66 2.01 5.32 1.02 6 0 C6 2.64 6 5.28 6 8 C5.34 8 4.68 8 4 8 C3.67 7.34 3.34 6.68 3 6 C2.67 6.66 2.34 7.32 2 8 C1.34 8 0.68 8 0 8 C0 5.36 0 2.72 0 0 Z " fill="#C1AC66" transform="translate(167,266)"/>
<path d="M0 0 C2.5625 0.875 2.5625 0.875 5 2 C5.66 2 6.32 2 7 2 C6.67 2.99 6.34 3.98 6 5 C6 5.66 6 6.32 6 7 C5.67 7.66 5.34 8.32 5 9 C4.67 8.01 4.34 7.02 4 6 C1.03 5.505 1.03 5.505 -2 5 C-2.33 4.01 -2.66 3.02 -3 2 C-2.01 1.34 -1.02 0.68 0 0 Z " fill="#0DC2E3" transform="translate(235,46)"/>
<path d="M0 0 C2.97 0.99 5.94 1.98 9 3 C9 3.33 9 3.66 9 4 C6.69 4 4.38 4 2 4 C2 3.34 2 2.68 2 2 C1.34 2 0.68 2 0 2 C0 1.34 0 0.68 0 0 Z M-5 3 C-2.69 3.33 -0.38 3.66 2 4 C2.33 5.32 2.66 6.64 3 8 C0.525 7.01 0.525 7.01 -2 6 C-2 5.34 -2 4.68 -2 4 C-2.99 3.67 -3.98 3.34 -5 3 Z " fill="#1DA2B7" transform="translate(218,33)"/>
<path d="M0 0 C1.65 0 3.3 0 5 0 C5 2.64 5 5.28 5 8 C4.34 7.67 3.68 7.34 3 7 C3 6.34 3 5.68 3 5 C2.34 5 1.68 5 1 5 C0.67 5.99 0.34 6.98 0 8 C0 5.36 0 2.72 0 0 Z " fill="#AEA067" transform="translate(215,255)"/>
<path d="M0 0 C0.33 0 0.66 0 1 0 C1 5.94 1 11.88 1 18 C0.34 18 -0.32 18 -1 18 C-1 19.65 -1 21.3 -1 23 C-1.33 23 -1.66 23 -2 23 C-1.43434519 15.32153678 -0.8123221 7.65656792 0 0 Z " fill="#1FA1B6" transform="translate(107,234)"/>
<path d="M0 0 C0.33 0 0.66 0 1 0 C1 2.97 1 5.94 1 9 C-1.31 9 -3.62 9 -6 9 C-5.02501855 7.4972763 -4.04490611 5.99788037 -3.0625 4.5 C-2.51722656 3.6646875 -1.97195312 2.829375 -1.41015625 1.96875 C-0.94480469 1.3190625 -0.47945312 0.669375 0 0 Z " fill="#213F1B" transform="translate(196,138)"/>
<path d="M0 0 C1.32 0.33 2.64 0.66 4 1 C5.42625566 8.41143564 6.30071865 15.44862068 6 23 C5.67 23 5.34 23 5 23 C4.89042969 21.92621094 4.78085938 20.85242188 4.66796875 19.74609375 C4.50838413 18.3098322 4.34819558 16.87363767 4.1875 15.4375 C4.11724609 14.73302734 4.04699219 14.02855469 3.97460938 13.30273438 C3.40610545 8.36812035 2.14947796 4.48151433 0 0 Z " fill="#20AABF" transform="translate(141,83)"/>
<path d="M0 0 C0.66 0.33 1.32 0.66 2 1 C0.59419724 2.65512248 -0.82506266 4.29882206 -2.25 5.9375 C-3.03890625 6.85402344 -3.8278125 7.77054688 -4.640625 8.71484375 C-6.91251033 10.91526249 -7.92319022 11.66832555 -11 12 C-10.67 11.01 -10.34 10.02 -10 9 C-9.34 9 -8.68 9 -8 9 C-8 8.34 -8 7.68 -8 7 C-7.34 7 -6.68 7 -6 7 C-6 6.34 -6 5.68 -6 5 C-4.04072937 3.2856382 -2.04119788 1.61594832 0 0 Z " fill="#022D38" transform="translate(97,46)"/>
<path d="M0 0 C0.33 1.32 0.66 2.64 1 4 C0.34 4 -0.32 4 -1 4 C-1.226875 4.763125 -1.45375 5.52625 -1.6875 6.3125 C-3.26731682 9.54736301 -4.83282717 10.41641358 -8 12 C-6.49087042 7.01987239 -3.44338151 3.75740058 0 0 Z " fill="#199EB5" transform="translate(70,60)"/>
<path d="M0 0 C0.66 0 1.32 0 2 0 C2.66 2.64 3.32 5.28 4 8 C3.34 8 2.68 8 2 8 C2 7.34 2 6.68 2 6 C1.01 6 0.02 6 -1 6 C-1 6.66 -1 7.32 -1 8 C-1.66 8 -2.32 8 -3 8 C-1.125 1.125 -1.125 1.125 0 0 Z " fill="#B4A164" transform="translate(141,255)"/>
<path d="M0 0 C0.66 0 1.32 0 2 0 C2.06058594 0.67546875 2.12117187 1.3509375 2.18359375 2.046875 C2.26738281 2.93890625 2.35117188 3.8309375 2.4375 4.75 C2.55931641 6.07257813 2.55931641 6.07257813 2.68359375 7.421875 C2.96238465 9.69350452 3.38790577 11.79851823 4 14 C2.0625 13.4375 2.0625 13.4375 0 12 C-0.8125 8.4375 -0.8125 8.4375 -1 5 C-0.67 4.67 -0.34 4.34 0 4 C0 2.68 0 1.36 0 0 Z " fill="#82CC62" transform="translate(190,200)"/>
<path d="M0 0 C2 2 2 2 2.3125 4.4375 C2 7 2 7 0.8125 8.875 C-1 10 -1 10 -3.6875 9.6875 C-4.450625 9.460625 -5.21375 9.23375 -6 9 C-5.195625 8.443125 -4.39125 7.88625 -3.5625 7.3125 C-0.75771784 4.78135513 -0.30618405 3.67420866 0 0 Z " fill="#376126" transform="translate(204,176)"/>
<path d="M0 0 C0.66 0 1.32 0 2 0 C3.80411967 2.75924185 4.0127245 3.88972103 3.625 7.25 C3.41875 8.1575 3.2125 9.065 3 10 C2.01 9.67 1.02 9.34 0 9 C-0.84454356 5.62182575 -1.10844919 3.32534757 0 0 Z " fill="#09C0E1" transform="translate(63,175)"/>
<path d="M0 0 C1.28317892 3.84953676 1.06643637 6.94738135 1 11 C-2.53586014 7.82679218 -4.58578031 5.83256305 -5 1 C-3.68 1.33 -2.36 1.66 -1 2 C-0.67 1.34 -0.34 0.68 0 0 Z " fill="#18A7C0" transform="translate(60,170)"/>
<path d="M0 0 C1.65 0 3.3 0 5 0 C5 2.66666667 5 5.33333333 5 8 C3.35 8 1.7 8 0 8 C0 7.34 0 6.68 0 6 C0.66 5.67 1.32 5.34 2 5 C1.34 4.67 0.68 4.34 0 4 C0 2.68 0 1.36 0 0 Z " fill="#B1A16D" transform="translate(200,255)"/>
<path d="M0 0 C1.65 0.33 3.3 0.66 5 1 C5 3.62113708 4.68707555 5.50935112 4 8 C2.68 8 1.36 8 0 8 C0.33 7.34 0.66 6.68 1 6 C1.66 6.33 2.32 6.66 3 7 C3 6.34 3 5.68 3 5 C1.68 4.67 0.36 4.34 -1 4 C-0.67 2.68 -0.34 1.36 0 0 Z " fill="#B39F68" transform="translate(167,255)"/>
<path d="M0 0 C-0.99 0.33 -1.98 0.66 -3 1 C-3 3.64 -3 6.28 -3 9 C-3.99 8.67 -4.98 8.34 -6 8 C-5.95875 7.236875 -5.9175 6.47375 -5.875 5.6875 C-5.77919176 2.77281584 -5.77919176 2.77281584 -8 0 C-5.13822943 -1.43088528 -3.06624227 -0.59991697 0 0 Z " fill="#32250F" transform="translate(163,254)"/>
<path d="M0 0 C1.98 0.66 3.96 1.32 6 2 C5.649375 2.61875 5.29875 3.2375 4.9375 3.875 C4.4734375 4.926875 4.4734375 4.926875 4 6 C4.33 6.66 4.66 7.32 5 8 C4.34 8.66 3.68 9.32 3 10 C2.67 8.02 2.34 6.04 2 4 C0.68 4.33 -0.64 4.66 -2 5 C-1.34 3.35 -0.68 1.7 0 0 Z " fill="#171008" transform="translate(141,251)"/>
<path d="M0 0 C0.66 1.32 1.32 2.64 2 4 C1.01 5.485 1.01 5.485 0 7 C-0.309375 8.03125 -0.61875 9.0625 -0.9375 10.125 C-1.288125 11.07375 -1.63875 12.0225 -2 13 C-2.99 13.33 -3.98 13.66 -5 14 C-3.70022952 9.1008651 -2.07626313 4.62440425 0 0 Z " fill="#022531" transform="translate(280,174)"/>
<path d="M0 0 C0.66 0 1.32 0 2 0 C2.66 0.99 3.32 1.98 4 3 C4.33 2.01 4.66 1.02 5 0 C5.66 0 6.32 0 7 0 C6.34 2.64 5.68 5.28 5 8 C4.01 8 3.02 8 2 8 C0.74335022 5.09399739 0 3.20395416 0 0 Z " fill="#AEA06A" transform="translate(222,255)"/>
<path d="M0 0 C0.33 0 0.66 0 1 0 C1.08082094 1.95766281 1.13910778 3.91626728 1.1875 5.875 C1.23970703 7.51082031 1.23970703 7.51082031 1.29296875 9.1796875 C1.19628906 10.11039063 1.09960938 11.04109375 1 12 C0.01 12.66 -0.98 13.32 -2 14 C-2.21192221 8.80790596 -1.5912689 4.873261 0 0 Z " fill="#7CC95A" transform="translate(203,198)"/>
<path d="M0 0 C0.66 0.33 1.32 0.66 2 1 C2.1875 3.375 2.1875 3.375 2 6 C-1.4352048 8.29013653 -2.985331 8.17842973 -7 8 C-5.71034824 6.62437146 -4.37310707 5.29233607 -3 4 C-2.34 4 -1.68 4 -1 4 C-0.67 2.68 -0.34 1.36 0 0 Z " fill="#356026" transform="translate(202,166)"/>
<path d="M0 0 C0.6875 1.75 0.6875 1.75 1 4 C-0.25 6.25 -0.25 6.25 -2 8 C-2.99 8 -3.98 8 -5 8 C-5 8.66 -5 9.32 -5 10 C-5.66 10 -6.32 10 -7 10 C-5.33248852 6.05860922 -2.77289351 3.2107188 0 0 Z " fill="#02242D" transform="translate(85,58)"/>
<path d="M0 0 C0.66 0 1.32 0 2 0 C1.01 3.96 0.02 7.92 -1 12 C-1.33 12 -1.66 12 -2 12 C-2.05395478 10.37536158 -2.09277195 8.75021459 -2.125 7.125 C-2.14820313 6.22007813 -2.17140625 5.31515625 -2.1953125 4.3828125 C-2 2 -2 2 0 0 Z " fill="#1AAEC7" transform="translate(64,88)"/>
<path d="M0 0 C0.66 0 1.32 0 2 0 C2.20496094 0.62648438 2.40992188 1.25296875 2.62109375 1.8984375 C2.89050781 2.71570313 3.15992188 3.53296875 3.4375 4.375 C3.70433594 5.18710938 3.97117188 5.99921875 4.24609375 6.8359375 C4.95179729 9.01031799 4.95179729 9.01031799 6 11 C5.34 11 4.68 11 4 11 C3.67 11.66 3.34 12.32 3 13 C2.49487756 11.39743892 1.99608373 9.79288208 1.5 8.1875 C1.2215625 7.29417969 0.943125 6.40085937 0.65625 5.48046875 C0 3 0 3 0 0 Z " fill="#D35050" transform="translate(186,103)"/>
<path d="M0 0 C2.125 0.375 2.125 0.375 4 1 C3.01 1.33 2.02 1.66 1 2 C0.26676204 4.01508358 0.26676204 4.01508358 0 6 C-1.32 6.33 -2.64 6.66 -4 7 C-2.92598892 4.08482708 -2.22189824 2.22189824 0 0 Z " fill="#012332" transform="translate(135,81)"/>
<path d="M0 0 C0.33 0 0.66 0 1 0 C1 1.65 1 3.3 1 5 C0.01 5 -0.98 5 -2 5 C-2.2475 5.969375 -2.495 6.93875 -2.75 7.9375 C-3.1625 8.948125 -3.575 9.95875 -4 11 C-6.125 11.875 -6.125 11.875 -8 12 C-8 11.34 -8 10.68 -8 10 C-7.34 10 -6.68 10 -6 10 C-5.7525 9.46375 -5.505 8.9275 -5.25 8.375 C-3.69915043 5.42838581 -1.91694442 2.72082434 0 0 Z " fill="#1C97AE" transform="translate(246,204)"/>
<path d="M0 0 C0.33 0 0.66 0 1 0 C0.91291962 2.10494301 0.80474307 4.20902142 0.6875 6.3125 C0.62949219 7.48425781 0.57148438 8.65601563 0.51171875 9.86328125 C-0.01604768 13.0983686 -0.42380724 14.08684881 -3 16 C-2.40984815 10.49191603 -1.43336231 5.35121931 0 0 Z " fill="#032A35" transform="translate(284,158)"/>
<path d="M0 0 C1.93607846 2.8471742 1.98954766 4.15417196 1.75 7.6875 C1.5025 8.780625 1.255 9.87375 1 11 C0.01 11.495 0.01 11.495 -1 12 C-1.02687279 10.18757948 -1.04633715 8.37504767 -1.0625 6.5625 C-1.07410156 5.55316406 -1.08570313 4.54382813 -1.09765625 3.50390625 C-1 1 -1 1 0 0 Z " fill="#020F18" transform="translate(286,150)"/>
<path d="M0 0 C0.99 0 1.98 0 3 0 C3 0.66 3 1.32 3 2 C4.65 2 6.3 2 8 2 C8.33 1.34 8.66 0.68 9 0 C9 3 9 3 7.5 4.6875 C7.005 5.120625 6.51 5.55375 6 6 C6 5.34 6 4.68 6 4 C4.02 4 2.04 4 0 4 C0 2.68 0 1.36 0 0 Z " fill="#050F03" transform="translate(196,155)"/>
<path d="M0 0 C0 2 0 2 -1.5 3.625 C-5.12010808 5.61605945 -7.89993009 5.2050035 -12 5 C-8.45976076 2.63984051 -4.36489861 0 0 0 Z " fill="#011C27" transform="translate(227,234)"/>
<path d="M0 0 C0.33 0 0.66 0 1 0 C1.125 5.75 1.125 5.75 0 8 C-1.32 8 -2.64 8 -4 8 C-2.87548273 5.0280615 -1.77706209 2.66559313 0 0 Z " fill="#022129" transform="translate(271,194)"/>
<path d="M0 0 C0.99 0.66 1.98 1.32 3 2 C0.69 4.97 -1.62 7.94 -4 11 C-4.33 9.68 -4.66 8.36 -5 7 C-4.34 7 -3.68 7 -3 7 C-3 5.68 -3 4.36 -3 3 C-1.5 1.25 -1.5 1.25 0 0 Z " fill="#01111B" transform="translate(68,58)"/>
<path d="M0 0 C0.99 0 1.98 0 3 0 C3 0.66 3 1.32 3 2 C3.66 2.33 4.32 2.66 5 3 C4.67 3.66 4.34 4.32 4 5 C2.02 5 0.04 5 -2 5 C-2 4.01 -2 3.02 -2 2 C-1.34 2 -0.68 2 0 2 C0 1.34 0 0.68 0 0 Z " fill="#1E1305" transform="translate(140,261)"/>
<path d="M0 0 C3.63 1.98 7.26 3.96 11 6 C11 6.66 11 7.32 11 8 C6.80639551 7.32902328 3.59665648 5.1441606 0 3 C0 2.01 0 1.02 0 0 Z " fill="#011D2A" transform="translate(82,206)"/>
<path d="M0 0 C3.875 1.75 3.875 1.75 5 4 C3.68 4 2.36 4 1 4 C0.34 4.66 -0.32 5.32 -1 6 C-1.99 5.01 -2.98 4.02 -4 3 C-2.68 2.67 -1.36 2.34 0 2 C0 1.34 0 0.68 0 0 Z " fill="#19A2BD" transform="translate(82,199)"/>
<path d="M0 0 C0.99 0 1.98 0 3 0 C2.54738642 1.43931117 2.08767021 2.87638999 1.625 4.3125 C1.36976562 5.11300781 1.11453125 5.91351563 0.8515625 6.73828125 C0 9 0 9 -2 12 C-1.85904936 10.3745692 -1.71207913 8.74965949 -1.5625 7.125 C-1.48128906 6.22007813 -1.40007813 5.31515625 -1.31640625 4.3828125 C-1 2 -1 2 0 0 Z " fill="#011319" transform="translate(52,82)"/>
<path d="M0 0 C-0.25 1.875 -0.25 1.875 -1 4 C-2.875 5.3125 -2.875 5.3125 -5 6 C-5.99 5.67 -6.98 5.34 -8 5 C-3.16129032 0 -3.16129032 0 0 0 Z " fill="#09C2E4" transform="translate(106,36)"/>
<path d="M0 0 C1.77074917 -0.02705729 3.54161711 -0.04642195 5.3125 -0.0625 C6.29863281 -0.07410156 7.28476563 -0.08570312 8.30078125 -0.09765625 C11 0 11 0 14 1 C14 1.66 14 2.32 14 3 C9.30976546 2.43393721 4.65499974 1.81462495 0 1 C0 0.67 0 0.34 0 0 Z " fill="#012A3A" transform="translate(183,22)"/>
<path d="M0 0 C-0.25 1.875 -0.25 1.875 -1 4 C-3.0625 5.25 -3.0625 5.25 -5 6 C-5 4.35 -5 2.7 -5 1 C-3 0 -3 0 0 0 Z " fill="#09C1E4" transform="translate(100,283)"/>
<path d="M0 0 C1.98 0 3.96 0 6 0 C6 0.66 6 1.32 6 2 C5.34 2 4.68 2 4 2 C4 3.98 4 5.96 4 8 C3.34 8 2.68 8 2 8 C2 5.69 2 3.38 2 1 C1.34 0.67 0.68 0.34 0 0 Z " fill="#BBA770" transform="translate(138,266)"/>
<path d="M0 0 C4.29 0.33 8.58 0.66 13 1 C8.78370866 3.10814567 6.60209225 3.17700355 2 3 C2 2.34 2 1.68 2 1 C1.34 0.67 0.68 0.34 0 0 Z " fill="#1FA3B8" transform="translate(198,238)"/>
<path d="M0 0 C-0.33 0.66 -0.66 1.32 -1 2 C-3.97 2 -6.94 2 -10 2 C-9 0 -9 0 -7.25 -0.6875 C-4.60760177 -1.05449975 -2.57327078 -0.64331769 0 0 Z " fill="#21B1CD" transform="translate(212,237)"/>
<path d="M0 0 C0.33 0.99 0.66 1.98 1 3 C0.00390625 4.82421875 0.00390625 4.82421875 -1.4375 6.6875 C-1.91058594 7.31011719 -2.38367188 7.93273437 -2.87109375 8.57421875 C-3.24363281 9.04472656 -3.61617187 9.51523438 -4 10 C-4.66 9.67 -5.32 9.34 -6 9 C-5.34 7.68 -4.68 6.36 -4 5 C-3.34 5 -2.68 5 -2 5 C-1.855625 4.360625 -1.71125 3.72125 -1.5625 3.0625 C-1 1 -1 1 0 0 Z " fill="#002028" transform="translate(143,231)"/>
<path d="M0 0 C1.98 0.66 3.96 1.32 6 2 C5.67 2.99 5.34 3.98 5 5 C2.9375 5.6875 2.9375 5.6875 1 6 C0.67 4.02 0.34 2.04 0 0 Z " fill="#13B8D6" transform="translate(77,196)"/>
<path d="M0 0 C0.33 0 0.66 0 1 0 C0.88512252 1.58409994 0.75765492 3.16728963 0.625 4.75 C0.52058594 6.07257813 0.52058594 6.07257813 0.4140625 7.421875 C0 10 0 10 -2 14 C-2 10.7 -2 7.4 -2 4 C-1.34 4 -0.68 4 0 4 C0 2.68 0 1.36 0 0 Z " fill="#1FACBF" transform="translate(284,152)"/>
<path d="M0 0 C0.33 0 0.66 0 1 0 C0.67 2.64 0.34 5.28 0 8 C-0.66 8 -1.32 8 -2 8 C-2.33 8.66 -2.66 9.32 -3 10 C-3.33 8.35 -3.66 6.7 -4 5 C-3.01 5 -2.02 5 -1 5 C-0.67 3.35 -0.34 1.7 0 0 Z " fill="#742F33" transform="translate(201,98)"/>
<path d="M0 0 C0.66 0.33 1.32 0.66 2 1 C0.76055724 1.86941494 -0.49207059 2.72005457 -1.75 3.5625 C-2.44609375 4.03816406 -3.1421875 4.51382813 -3.859375 5.00390625 C-6 6 -6 6 -8.265625 5.65234375 C-8.83796875 5.43707031 -9.4103125 5.22179688 -10 5 C-8.38007835 4.13624104 -6.75388139 3.28424146 -5.125 2.4375 C-4.22007813 1.96183594 -3.31515625 1.48617187 -2.3828125 0.99609375 C-1.20332031 0.50302734 -1.20332031 0.50302734 0 0 Z " fill="#23A6BC" transform="translate(107,33)"/>
<path d="M0 0 C0.33 0 0.66 0 1 0 C1 2.64 1 5.28 1 8 C-0.65 8.33 -2.3 8.66 -4 9 C-2.25 2.25 -2.25 2.25 0 0 Z " fill="#3D2E11" transform="translate(166,266)"/>
<path d="M0 0 C1.74627478 2.61941217 2.38722388 4.03824877 3 7 C1.68 7.33 0.36 7.66 -1 8 C-1.04241723 5.66705225 -1.04092937 3.33297433 -1 1 C-0.67 0.67 -0.34 0.34 0 0 Z " fill="#271908" transform="translate(221,255)"/>
<path d="M0 0 C0 0.33 0 0.66 0 1 C-1.98 1 -3.96 1 -6 1 C-6.33 1.99 -6.66 2.98 -7 4 C-7.66 3.34 -8.32 2.68 -9 2 C-10.31747324 1.30251417 -11.64914193 0.63040043 -13 0 C-8.34462607 -0.83796731 -4.62921525 -1.0161692 0 0 Z " fill="#191104" transform="translate(249,254)"/>
<path d="M0 0 C0.33 0.99 0.66 1.98 1 3 C0.01 3.33 -0.98 3.66 -2 4 C-2.474375 4.495 -2.94875 4.99 -3.4375 5.5 C-5.25193719 7.24185971 -6.55559077 7.57855013 -9 8 C-8.67 7.34 -8.34 6.68 -8 6 C-7.34 6 -6.68 6 -6 6 C-5.67 5.01 -5.34 4.02 -5 3 C-2.4375 1.3125 -2.4375 1.3125 0 0 Z " fill="#09C3E5" transform="translate(234,224)"/>
<path d="M0 0 C0.33 1.32 0.66 2.64 1 4 C-0.98 4.99 -2.96 5.98 -5 7 C-4.49396008 4.83125748 -4.00016187 3.00032373 -3 1 C-2.01 0.67 -1.02 0.34 0 0 Z " fill="#19AAC3" transform="translate(239,215)"/>
<path d="M0 0 C1.65 0 3.3 0 5 0 C1.375 4.875 1.375 4.875 -2 6 C-2.33 5.01 -2.66 4.02 -3 3 C-2.01 3 -1.02 3 0 3 C0 2.01 0 1.02 0 0 Z " fill="#011219" transform="translate(230,218)"/>
<path d="M0 0 C1.32 0 2.64 0 4 0 C4 0.66 4 1.32 4 2 C3.34 2 2.68 2 2 2 C2 3.32 2 4.64 2 6 C0.35 6 -1.3 6 -3 6 C-3 5.34 -3 4.68 -3 4 C-2.01 3.67 -1.02 3.34 0 3 C0 2.01 0 1.02 0 0 Z " fill="#2C521D" transform="translate(202,151)"/>
<path d="M0 0 C0.66 0 1.32 0 2 0 C2 3.3 2 6.6 2 10 C1.01 9.34 0.02 8.68 -1 8 C-1.25 4.4375 -1.25 4.4375 -1 1 C-0.67 0.67 -0.34 0.34 0 0 Z " fill="#71BB4E" transform="translate(200,137)"/>
<path d="M0 0 C1.62723299 0.45034123 3.25173664 0.91055354 4.875 1.375 C5.77992188 1.63023438 6.68484375 1.88546875 7.6171875 2.1484375 C10 3 10 3 12 5 C9.69 5 7.38 5 5 5 C5 4.34 5 3.68 5 3 C3.35 2.67 1.7 2.34 0 2 C0 1.34 0 0.68 0 0 Z " fill="#00141D" transform="translate(193,28)"/>
<path d="M0 0 C-2.9826906 1.52448631 -5.818202 2.93940067 -9 4 C-11.1875 3.0625 -11.1875 3.0625 -13 2 C-11.5882217 1.46605821 -10.17029756 0.94834896 -8.75 0.4375 C-7.96109375 0.14746094 -7.1721875 -0.14257812 -6.359375 -0.44140625 C-3.80896548 -1.04522837 -2.44677771 -0.8473932 0 0 Z " fill="#032631" transform="translate(138,28)"/>
<path d="M0 0 C0.33 0.66 0.66 1.32 1 2 C-0.73397418 5.65047197 -2.19333016 7.55609075 -6 9 C-4.47291037 5.56404834 -2.40072955 2.88087546 0 0 Z " fill="#03323E" transform="translate(113,273)"/>
<path d="M0 0 C0 3.57575896 -1.08840607 5.05295935 -3 8 C-4.32 7.67 -5.64 7.34 -7 7 C-4.69 4.69 -2.38 2.38 0 0 Z " fill="#053241" transform="translate(258,211)"/>
<path d="M0 0 C0.33 0.66 0.66 1.32 1 2 C-0.1875 4.5625 -0.1875 4.5625 -2 7 C-3.32 7.33 -4.64 7.66 -6 8 C-4.02 5.36 -2.04 2.72 0 0 Z " fill="#022E38" transform="translate(265,203)"/>
<path d="M0 0 C1.47118907 3.82509158 0.45442741 6.28312995 -1 10 C-1.33 10.66 -1.66 11.32 -2 12 C-2.66 12 -3.32 12 -4 12 C-2.66666667 8 -1.33333333 4 0 0 Z " fill="#1E97AD" transform="translate(257,180)"/>
<path d="M0 0 C1.98 0 3.96 0 6 0 C6 0.99 6 1.98 6 3 C3.69 3 1.38 3 -1 3 C-0.67 2.01 -0.34 1.02 0 0 Z " fill="#85CA6B" transform="translate(190,147)"/>
<path d="M0 0 C0.33 0 0.66 0 1 0 C1 2.64 1 5.28 1 8 C-0.98 8.99 -0.98 8.99 -3 10 C-2.01 6.7 -1.02 3.4 0 0 Z " fill="#1B98AC" transform="translate(53,86)"/>
<path d="M0 0 C0.33 0.66 0.66 1.32 1 2 C0.22265625 3.9453125 0.22265625 3.9453125 -0.9375 6.125 C-1.31777344 6.84945312 -1.69804688 7.57390625 -2.08984375 8.3203125 C-2.39019531 8.87460938 -2.69054687 9.42890625 -3 10 C-3.66 10 -4.32 10 -5 10 C-3.84414715 6.08788267 -2.64465038 3.1254959 0 0 Z " fill="#012C38" transform="translate(77,68)"/>
<path d="M0 0 C2.97 0.495 2.97 0.495 6 1 C6 1.66 6 2.32 6 3 C1.25 4.125 1.25 4.125 -1 3 C-0.67 2.01 -0.34 1.02 0 0 Z " fill="#16B9D3" transform="translate(117,29)"/>
<path d="M0 0 C0.99 0 1.98 0 3 0 C1.55746343 3.36591866 -0.33264727 5.51047079 -3 8 C-2.67 6.35 -2.34 4.7 -2 3 C-1.34 3 -0.68 3 0 3 C0 2.01 0 1.02 0 0 Z " fill="#00131F" transform="translate(243,204)"/>
<path d="M0 0 C2.86724686 0.57344937 3.8614515 0.8614515 6 3 C5.34 3 4.68 3 4 3 C4.33 4.32 4.66 5.64 5 7 C4.34 7 3.68 7 3 7 C2.67 6.01 2.34 5.02 2 4 C1.34 3.67 0.68 3.34 0 3 C0 2.01 0 1.02 0 0 Z " fill="#76C852" transform="translate(198,148)"/>
<path d="M0 0 C2.31 0 4.62 0 7 0 C6.01 0.66 5.02 1.32 4 2 C4 2.66 4 3.32 4 4 C4.66 4.33 5.32 4.66 6 5 C3 5 3 5 1.3125 3.625 C0 2 0 2 0 0 Z " fill="#20AABE" transform="translate(100,80)"/>
<path d="M0 0 C2.375 0.1875 2.375 0.1875 5 1 C6.3125 3.5625 6.3125 3.5625 7 6 C3.73539027 4.19587357 2.11070205 3.16605307 0 0 Z " fill="#19A3B3" transform="translate(226,45)"/>
<path d="M0 0 C3.62528568 -0.20140476 5.86501708 0.14223235 9 2 C9 2.66 9 3.32 9 4 C6.69 3.67 4.38 3.34 2 3 C2 2.34 2 1.68 2 1 C1.34 0.67 0.68 0.34 0 0 Z " fill="#0AC0DD" transform="translate(211,33)"/>
<path d="M0 0 C0.33 1.32 0.66 2.64 1 4 C0.01 4 -0.98 4 -2 4 C-2.33 4.66 -2.66 5.32 -3 6 C-3.66 6 -4.32 6 -5 6 C-4.1875 3.5625 -4.1875 3.5625 -3 1 C-2.01 0.67 -1.02 0.34 0 0 Z " fill="#12A7BE" transform="translate(252,198)"/>
<path d="M0 0 C0.99 0 1.98 0 3 0 C2.34 1.98 1.68 3.96 1 6 C0.34 6 -0.32 6 -1 6 C-1.33 6.66 -1.66 7.32 -2 8 C-1.47731534 5.23723823 -0.89130413 2.6739124 0 0 Z " fill="#001319" transform="translate(255,178)"/>
<path d="M0 0 C1.5 1 1.5 1 3 3 C3.27345479 5.71846235 3.13491285 8.25677199 3 11 C0.43383368 7.15075052 0.44902324 4.5650696 0 0 Z " fill="#2B0404" transform="translate(194,90)"/>
<path d="M0 0 C0.33 0 0.66 0 1 0 C1 1.65 1 3.3 1 5 C0.01 5.33 -0.98 5.66 -2 6 C-2.33 6.66 -2.66 7.32 -3 8 C-2.25 2.25 -2.25 2.25 0 0 Z " fill="#032E38" transform="translate(171,82)"/>
<path d="M0 0 C0.66 0.99 1.32 1.98 2 3 C1.34 3 0.68 3 0 3 C0.33 3.99 0.66 4.98 1 6 C0.5625 8.6875 0.5625 8.6875 0 11 C-0.33 11 -0.66 11 -1 11 C-1 8.36 -1 5.72 -1 3 C-1.66 2.67 -2.32 2.34 -3 2 C-2.01 1.34 -1.02 0.68 0 0 Z " fill="#130E04" transform="translate(195,252)"/>
<path d="M0 0 C0.66 1.32 1.32 2.64 2 4 C0.68 4.99 -0.64 5.98 -2 7 C-2.125 4.625 -2.125 4.625 -2 2 C-1.34 1.34 -0.68 0.68 0 0 Z " fill="#1BB5CF" transform="translate(265,198)"/>
<path d="M0 0 C0.99 0.33 1.98 0.66 3 1 C2.67 3.64 2.34 6.28 2 9 C1.67 9 1.34 9 1 9 C0.67 6.03 0.34 3.06 0 0 Z " fill="#89D465" transform="translate(200,196)"/>
<path d="M0 0 C1.32 0.33 2.64 0.66 4 1 C2.515 4.96 2.515 4.96 1 9 C0.67 9 0.34 9 0 9 C0 6.03 0 3.06 0 0 Z " fill="#1EADC3" transform="translate(128,85)"/>
<path d="M0 0 C0.33 0.99 0.66 1.98 1 3 C0.01 4.485 0.01 4.485 -1 6 C-2.32 5.67 -3.64 5.34 -5 5 C-3.35 3.35 -1.7 1.7 0 0 Z " fill="#1AA4BB" transform="translate(76,54)"/>
<path d="M0 0 C0.66 0 1.32 0 2 0 C1.67 1.65 1.34 3.3 1 5 C-0.65 5 -2.3 5 -4 5 C-2.71937515 3.2925002 -1.38232443 1.62626404 0 0 Z " fill="#1DA6BE" transform="translate(81,49)"/>
</svg>
